<?xml version="1.0" encoding="UTF-8" standalone="no"?>
<svg
   width="369.93628"
   height="20.137625"
   version="1.1"
   id="svg28"
   sodipodi:docname="marketplace.svg"
   inkscape:version="1.2.1 (9c6d41e410, 2022-07-14, custom)"
   xmlns:inkscape="http://www.inkscape.org/namespaces/inkscape"
   xmlns:sodipodi="http://sodipodi.sourceforge.net/DTD/sodipodi-0.dtd"
   xmlns:xlink="http://www.w3.org/1999/xlink"
   xmlns="http://www.w3.org/2000/svg"
   xmlns:svg="http://www.w3.org/2000/svg"
   xmlns:rdf="http://www.w3.org/1999/02/22-rdf-syntax-ns#"
   xmlns:cc="http://creativecommons.org/ns#"
   xmlns:dc="http://purl.org/dc/elements/1.1/">
  <metadata
     id="metadata34">
    <rdf:RDF>
      <cc:Work
         rdf:about="">
        <dc:format>image/svg+xml</dc:format>
        <dc:type
           rdf:resource="http://purl.org/dc/dcmitype/StillImage" />
        <cc:license
           rdf:resource="MIT (c) L3D &lt;l3d@c3woc.de&gt;" />
        <dc:creator>
          <cc:Agent>
            <dc:title>3D &lt;l3d@c3woc.de&gt;</dc:title>
          </cc:Agent>
        </dc:creator>
        <dc:rights>
          <cc:Agent>
            <dc:title>MIT License</dc:title>
          </cc:Agent>
        </dc:rights>
      </cc:Work>
    </rdf:RDF>
  </metadata>
  <defs
     id="defs32">
    <linearGradient
       inkscape:collect="always"
       xlink:href="#b"
       id="linearGradient837"
       gradientUnits="userSpaceOnUse"
       gradientTransform="matrix(4.9067096,0,0,0.44280744,0.73965006,-1e-6)"
       x1="0"
       y1="-0.28392482"
       x2="0"
       y2="45.166359" />
    <linearGradient
       inkscape:collect="always"
       xlink:href="#b"
       id="linearGradient1242"
       gradientUnits="userSpaceOnUse"
       gradientTransform="matrix(4.9067096,0,0,0.44280744,1.0963297e-6,-1e-6)"
       x1="0"
       y1="-0.28392482"
       x2="0"
       y2="45.166359" />
    <linearGradient
       inkscape:collect="always"
       xlink:href="#b"
       id="linearGradient1244"
       gradientUnits="userSpaceOnUse"
       gradientTransform="matrix(4.9067096,0,0,0.44280744,1.0963297e-6,-1e-6)"
       x1="0"
       y1="-0.28392482"
       x2="0"
       y2="45.166359" />
  </defs>
  <sodipodi:namedview
     pagecolor="#ffffff"
     bordercolor="#666666"
     borderopacity="1"
     objecttolerance="10"
     gridtolerance="10"
     guidetolerance="10"
     inkscape:pageopacity="0"
     inkscape:pageshadow="2"
     inkscape:window-width="3832"
     inkscape:window-height="2042"
     id="namedview30"
     showgrid="false"
     showguides="true"
     inkscape:guide-bbox="true"
     inkscape:zoom="6.3805804"
     inkscape:cx="193.71279"
     inkscape:cy="-38.789575"
     inkscape:window-x="3840"
     inkscape:window-y="114"
     inkscape:window-maximized="0"
     inkscape:current-layer="svg28"
     fit-margin-top="0"
     fit-margin-left="0"
     fit-margin-right="0"
     fit-margin-bottom="0"
     inkscape:showpageshadow="0"
     inkscape:pagecheckerboard="1"
     inkscape:deskcolor="#d1d1d1">
    <sodipodi:guide
       position="47.649406,5.8374226"
       orientation="0,1"
       id="guide4567"
       inkscape:locked="false" />
  </sodipodi:namedview>
  <linearGradient
     id="b"
     x2="0"
     y2="45.166359"
     gradientTransform="scale(2.258318,0.44280744)"
     x1="0"
     y1="-0.28392482"
     gradientUnits="userSpaceOnUse">
    <stop
       offset="0"
       stop-color="#bbb"
       stop-opacity=".1"
       id="stop2" />
    <stop
       offset="1"
       stop-opacity=".1"
       id="stop4" />
  </linearGradient>
  <clipPath
     id="a">
    <rect
       width="102"
       height="20"
       rx="3"
       id="rect7"
       x="0"
       y="0"
       style="fill:#ffffff" />
  </clipPath>
  <path
     sodipodi:nodetypes="sccssss"
     inkscape:connector-curvature="0"
     id="path4637"
     d="M 366.55806,0 H 74 v 20 h 292.55806 c 1.87153,0 3.37821,-1.506683 3.37821,-3.378212 V 3.3782117 C 369.93627,1.5066824 368.42959,0 366.55806,0 Z"
     style="opacity:1;vector-effect:none;fill:#28a745;fill-opacity:1;stroke:none;stroke-width:1.4740175;stroke-linecap:butt;stroke-linejoin:miter;stroke-miterlimit:4;stroke-dasharray:none;stroke-dashoffset:0;stroke-opacity:1;paint-order:stroke fill markers" />
  <path
     style="opacity:1;vector-effect:none;fill:#4d4d4d;fill-opacity:1;stroke:none;stroke-width:1.4740175;stroke-linecap:butt;stroke-linejoin:miter;stroke-miterlimit:4;stroke-dasharray:none;stroke-dashoffset:0;stroke-opacity:1;paint-order:stroke fill markers"
     d="M 3.3782117,0 H 89.936272 V 20 H 3.3782117 C 1.5066824,20 0,18.493317 0,16.621788 V 3.3782117 C 0,1.5066824 1.5066824,0 3.3782117,0 Z"
     id="rect4634"
     inkscape:connector-curvature="0"
     sodipodi:nodetypes="sccssss" />
  <rect
     ry="3.3782117"
     y="0"
     x="4.6019753e-15"
     height="20.137625"
     width="369.18738"
     id="rect4641"
     style="opacity:1;vector-effect:none;fill:url(#linearGradient1242);fill-opacity:1;stroke:none;stroke-width:1.4740175;stroke-linecap:butt;stroke-linejoin:miter;stroke-miterlimit:4;stroke-dasharray:none;stroke-dashoffset:0;stroke-opacity:1;paint-order:stroke fill markers" />
  <rect
     style="opacity:1;vector-effect:none;fill:url(#linearGradient1244);fill-opacity:1;stroke:none;stroke-width:1.4740175;stroke-linecap:butt;stroke-linejoin:miter;stroke-miterlimit:4;stroke-dasharray:none;stroke-dashoffset:0;stroke-opacity:1;paint-order:stroke fill markers"
     id="rect1238"
     width="369.18738"
     height="20.137625"
     x="4.6019753e-15"
     y="0"
     ry="3.3782117" />
  <rect
     ry="3.3782117"
     y="0"
     x="0.73964894"
     height="20.137625"
     width="369.18738"
     id="rect1240"
     style="opacity:1;vector-effect:none;fill:url(#linearGradient837);fill-opacity:1;stroke:none;stroke-width:1.47402;stroke-linecap:butt;stroke-linejoin:miter;stroke-miterlimit:4;stroke-dasharray:none;stroke-dashoffset:0;stroke-opacity:1;paint-order:stroke fill markers" />
  <g
     id="g935"
     transform="translate(12)">
    <g
       id="g904"
       style="font-style:normal;font-variant:normal;font-weight:normal;font-stretch:normal;font-size:11px;line-height:1.25;font-family:'DejaVu Sans', Verdana, Geneva, sans-serif;-inkscape-font-specification:'DejaVu Sans, Verdana, Geneva, sans-serif, Normal';font-variant-ligatures:normal;font-variant-caps:normal;font-variant-numeric:normal;font-feature-settings:normal;text-align:start;letter-spacing:0px;word-spacing:0px;writing-mode:lr-tb;text-anchor:start;opacity:1;vector-effect:none;fill:#010101;fill-opacity:0.3;stroke:none;stroke-width:0.1;stroke-linecap:butt;stroke-linejoin:miter;stroke-miterlimit:4;stroke-dasharray:none;stroke-dashoffset:0;stroke-opacity:1"
       aria-label="Marketplace"
       transform="translate(0.00537139,1.192937)">
      <path
         style="vector-effect:none;fill:#010101;fill-opacity:0.3;stroke-width:0.1;stroke-linecap:butt;stroke-linejoin:miter;stroke-miterlimit:4;stroke-dasharray:none;stroke-dashoffset:0;stroke-opacity:1"
         inkscape:connector-curvature="0"
         id="path882"
         d="m 7.0639615,5.9564095 h 1.6166992 l 2.0463863,5.4570315 2.057129,-5.4570315 h 1.6167 V 13.975452 H 13.34277 V 6.9339485 L 11.274899,12.433949 H 10.184567 L 8.1166959,6.9339485 V 13.975452 H 7.0639615 Z" />
      <path
         style="vector-effect:none;fill:#010101;fill-opacity:0.3;stroke-width:0.1;stroke-linecap:butt;stroke-linejoin:miter;stroke-miterlimit:4;stroke-dasharray:none;stroke-dashoffset:0;stroke-opacity:1"
         inkscape:connector-curvature="0"
         id="path884"
         d="m 19.245602,10.951527 q -1.197754,0 -1.659668,0.273925 -0.461914,0.273926 -0.461914,0.934571 0,0.526367 0.34375,0.83789 0.349121,0.306153 0.945313,0.306153 0.821777,0 1.315918,-0.580078 0.499511,-0.58545 0.499511,-1.552247 v -0.220214 z m 1.971192,-0.408203 v 3.432128 h -0.988282 v -0.913086 q -0.338379,0.547852 -0.843261,0.811036 -0.504883,0.257812 -1.235352,0.257812 -0.923828,0 -1.47168,-0.515625 -0.54248,-0.520996 -0.54248,-1.391113 0,-1.015137 0.676758,-1.530762 0.682129,-0.515625 2.030273,-0.515625 h 1.385742 v -0.09668 q 0,-0.6821285 -0.451172,-1.0527339 -0.4458,-0.3759766 -1.256836,-0.3759766 -0.515625,0 -1.004394,0.1235352 -0.48877,0.1235351 -0.939941,0.3706054 V 8.2337532 q 0.54248,-0.2094727 1.052734,-0.3115234 0.510254,-0.1074219 0.993652,-0.1074219 1.305176,0 1.949707,0.6767578 0.644532,0.6767578 0.644532,2.0517583 z" />
      <path
         style="vector-effect:none;fill:#010101;fill-opacity:0.3;stroke-width:0.1;stroke-linecap:butt;stroke-linejoin:miter;stroke-miterlimit:4;stroke-dasharray:none;stroke-dashoffset:0;stroke-opacity:1"
         inkscape:connector-curvature="0"
         id="path886"
         d="m 26.738278,8.8836555 q -0.166504,-0.09668 -0.365234,-0.1396484 -0.19336,-0.04834 -0.429688,-0.04834 -0.837891,0 -1.289062,0.5478515 -0.445801,0.5424805 -0.445801,1.5629884 v 3.168945 H 23.21484 V 7.9598274 h 0.993653 v 0.9345703 q 0.311523,-0.5478515 0.811035,-0.8110351 0.499512,-0.2685547 1.213867,-0.2685547 0.102051,0 0.225586,0.016113 0.123535,0.010742 0.273926,0.037598 z" />
      <path
         style="vector-effect:none;fill:#010101;fill-opacity:0.3;stroke-width:0.1;stroke-linecap:butt;stroke-linejoin:miter;stroke-miterlimit:4;stroke-dasharray:none;stroke-dashoffset:0;stroke-opacity:1"
         inkscape:connector-curvature="0"
         id="path888"
         d="m 27.737301,5.6180305 h 0.993653 v 4.9360355 l 2.94873,-2.5942386 h 1.262207 l -3.190429,2.8144536 3.324707,3.201171 h -1.289063 l -3.056152,-2.937988 v 2.937988 h -0.993653 z" />
      <path
         style="vector-effect:none;fill:#010101;fill-opacity:0.3;stroke-width:0.1;stroke-linecap:butt;stroke-linejoin:miter;stroke-miterlimit:4;stroke-dasharray:none;stroke-dashoffset:0;stroke-opacity:1"
         inkscape:connector-curvature="0"
         id="path890"
         d="m 38.898434,10.72057 v 0.483398 h -4.543945 q 0.06445,1.020508 0.612305,1.557617 0.553222,0.531739 1.536132,0.531739 0.569336,0 1.101075,-0.139649 0.537109,-0.139648 1.063476,-0.418945 v 0.93457 q -0.531738,0.225586 -1.090332,0.34375 -0.558594,0.118164 -1.133301,0.118164 -1.439453,0 -2.282715,-0.83789 -0.83789,-0.837891 -0.83789,-2.266602 0,-1.4770508 0.794922,-2.3417969 0.800293,-0.8701172 2.153808,-0.8701172 1.213868,0 1.917481,0.7841797 0.708984,0.7788086 0.708984,2.1215824 z M 37.910153,10.430531 Q 37.899411,9.6194954 37.45361,9.136097 37.01318,8.6526985 36.282712,8.6526985 q -0.827149,0 -1.326661,0.4672852 -0.49414,0.4672851 -0.569336,1.3159183 z" />
      <path
         style="vector-effect:none;fill:#010101;fill-opacity:0.3;stroke-width:0.1;stroke-linecap:butt;stroke-linejoin:miter;stroke-miterlimit:4;stroke-dasharray:none;stroke-dashoffset:0;stroke-opacity:1"
         inkscape:connector-curvature="0"
         id="path892"
         d="m 41.498044,6.2518196 v 1.7080078 h 2.035644 v 0.7680664 h -2.035644 v 3.2656252 q 0,0.73584 0.19873,0.945312 0.204102,0.209473 0.821777,0.209473 h 1.015137 v 0.827148 h -1.015137 q -1.144043,0 -1.579101,-0.424316 -0.435059,-0.429687 -0.435059,-1.557617 V 8.7278938 H 39.779294 V 7.9598274 h 0.725097 V 6.2518196 Z" />
      <path
         style="vector-effect:none;fill:#010101;fill-opacity:0.3;stroke-width:0.1;stroke-linecap:butt;stroke-linejoin:miter;stroke-miterlimit:4;stroke-dasharray:none;stroke-dashoffset:0;stroke-opacity:1"
         inkscape:connector-curvature="0"
         id="path894"
         d="m 45.789547,13.073109 v 3.190429 H 44.795895 V 7.9598274 h 0.993652 v 0.913086 q 0.311524,-0.5371094 0.78418,-0.7949219 0.478027,-0.2631836 1.138672,-0.2631836 1.095703,0 1.777832,0.8701172 0.6875,0.8701172 0.6875,2.2880859 0,1.417969 -0.6875,2.288086 -0.682129,0.870117 -1.777832,0.870117 -0.660645,0 -1.138672,-0.257812 -0.472656,-0.263184 -0.78418,-0.800293 z m 3.362305,-2.100098 q 0,-1.090332 -0.451172,-1.7080078 -0.445801,-0.6230469 -1.22998,-0.6230469 -0.78418,0 -1.235352,0.6230469 -0.445801,0.6176758 -0.445801,1.7080078 0,1.090332 0.445801,1.713379 0.451172,0.617676 1.235352,0.617676 0.784179,0 1.22998,-0.617676 0.451172,-0.623047 0.451172,-1.713379 z" />
      <path
         style="vector-effect:none;fill:#010101;fill-opacity:0.3;stroke-width:0.1;stroke-linecap:butt;stroke-linejoin:miter;stroke-miterlimit:4;stroke-dasharray:none;stroke-dashoffset:0;stroke-opacity:1"
         inkscape:connector-curvature="0"
         id="path896"
         d="m 51.815915,5.6180305 h 0.988281 v 8.3574215 h -0.988281 z" />
      <path
         style="vector-effect:none;fill:#010101;fill-opacity:0.3;stroke-width:0.1;stroke-linecap:butt;stroke-linejoin:miter;stroke-miterlimit:4;stroke-dasharray:none;stroke-dashoffset:0;stroke-opacity:1"
         inkscape:connector-curvature="0"
         id="path898"
         d="m 57.605954,10.951527 q -1.197754,0 -1.659668,0.273925 -0.461914,0.273926 -0.461914,0.934571 0,0.526367 0.34375,0.83789 0.349121,0.306153 0.945312,0.306153 0.821778,0 1.315918,-0.580078 0.499512,-0.58545 0.499512,-1.552247 v -0.220214 z m 1.971191,-0.408203 v 3.432128 h -0.988281 v -0.913086 q -0.338379,0.547852 -0.843262,0.811036 -0.504883,0.257812 -1.235351,0.257812 -0.923829,0 -1.47168,-0.515625 -0.542481,-0.520996 -0.542481,-1.391113 0,-1.015137 0.676758,-1.530762 0.682129,-0.515625 2.030274,-0.515625 h 1.385742 v -0.09668 q 0,-0.6821285 -0.451172,-1.0527339 -0.445801,-0.3759766 -1.256836,-0.3759766 -0.515625,0 -1.004394,0.1235352 -0.48877,0.1235351 -0.939942,0.3706054 V 8.2337532 q 0.542481,-0.2094727 1.052734,-0.3115234 0.510254,-0.1074219 0.993653,-0.1074219 1.305176,0 1.949707,0.6767578 0.644531,0.6767578 0.644531,2.0517583 z" />
      <path
         style="vector-effect:none;fill:#010101;fill-opacity:0.3;stroke-width:0.1;stroke-linecap:butt;stroke-linejoin:miter;stroke-miterlimit:4;stroke-dasharray:none;stroke-dashoffset:0;stroke-opacity:1"
         inkscape:connector-curvature="0"
         id="path900"
         d="m 65.941891,8.1907845 v 0.9238281 q -0.418945,-0.2309571 -0.843262,-0.34375 -0.418945,-0.1181641 -0.848632,-0.1181641 -0.961426,0 -1.493164,0.6123047 -0.531739,0.6069336 -0.531739,1.7080078 0,1.101074 0.531739,1.713379 0.531738,0.606934 1.493164,0.606934 0.429687,0 0.848632,-0.112793 0.424317,-0.118165 0.843262,-0.349122 v 0.913086 q -0.413574,0.19336 -0.859375,0.290039 -0.440429,0.09668 -0.939941,0.09668 -1.358887,0 -2.15918,-0.854004 -0.800293,-0.854004 -0.800293,-2.304199 0,-1.4716797 0.805664,-2.3149414 0.811035,-0.8432617 2.218262,-0.8432617 0.456543,0 0.891601,0.09668 0.435059,0.091309 0.843262,0.2792966 z" />
      <path
         style="vector-effect:none;fill:#010101;fill-opacity:0.3;stroke-width:0.1;stroke-linecap:butt;stroke-linejoin:miter;stroke-miterlimit:4;stroke-dasharray:none;stroke-dashoffset:0;stroke-opacity:1"
         inkscape:connector-curvature="0"
         id="path902"
         d="m 72.806149,10.72057 v 0.483398 h -4.543945 q 0.06445,1.020508 0.612304,1.557617 0.553223,0.531739 1.536133,0.531739 0.569336,0 1.101074,-0.139649 0.53711,-0.139648 1.063477,-0.418945 v 0.93457 q -0.531738,0.225586 -1.090332,0.34375 -0.558594,0.118164 -1.133301,0.118164 -1.439453,0 -2.282715,-0.83789 -0.83789,-0.837891 -0.83789,-2.266602 0,-1.4770508 0.794922,-2.3417969 0.800293,-0.8701172 2.153808,-0.8701172 1.213867,0 1.917481,0.7841797 0.708984,0.7788086 0.708984,2.1215824 z m -0.988281,-0.290039 q -0.01074,-0.8110356 -0.456543,-1.294434 -0.44043,-0.4833985 -1.170899,-0.4833985 -0.827148,0 -1.32666,0.4672852 -0.49414,0.4672851 -0.569336,1.3159183 z" />
    </g>
    <g
       transform="translate(3.9474745e-7,0.1778004)"
       aria-label="Marketplace"
       style="font-style:normal;font-variant:normal;font-weight:normal;font-stretch:normal;font-size:11px;line-height:1.25;font-family:'DejaVu Sans', Verdana, Geneva, sans-serif;-inkscape-font-specification:'DejaVu Sans, Verdana, Geneva, sans-serif, Normal';font-variant-ligatures:normal;font-variant-caps:normal;font-variant-numeric:normal;font-feature-settings:normal;text-align:start;letter-spacing:0px;word-spacing:0px;writing-mode:lr-tb;text-anchor:start;fill:#ffffff;fill-opacity:1;stroke:none"
       id="text835">
      <path
         d="m 7.0639615,5.9564095 h 1.6166992 l 2.0463863,5.4570315 2.057129,-5.4570315 h 1.6167 V 13.975452 H 13.34277 V 6.9339485 L 11.274899,12.433949 H 10.184567 L 8.1166959,6.9339485 V 13.975452 H 7.0639615 Z"
         id="path837"
         inkscape:connector-curvature="0" />
      <path
         d="m 19.245602,10.951527 q -1.197754,0 -1.659668,0.273925 -0.461914,0.273926 -0.461914,0.934571 0,0.526367 0.34375,0.83789 0.349121,0.306153 0.945313,0.306153 0.821777,0 1.315918,-0.580078 0.499511,-0.58545 0.499511,-1.552247 v -0.220214 z m 1.971192,-0.408203 v 3.432128 h -0.988282 v -0.913086 q -0.338379,0.547852 -0.843261,0.811036 -0.504883,0.257812 -1.235352,0.257812 -0.923828,0 -1.47168,-0.515625 -0.54248,-0.520996 -0.54248,-1.391113 0,-1.015137 0.676758,-1.530762 0.682129,-0.515625 2.030273,-0.515625 h 1.385742 v -0.09668 q 0,-0.6821285 -0.451172,-1.0527339 -0.4458,-0.3759766 -1.256836,-0.3759766 -0.515625,0 -1.004394,0.1235352 -0.48877,0.1235351 -0.939941,0.3706054 V 8.2337532 q 0.54248,-0.2094727 1.052734,-0.3115234 0.510254,-0.1074219 0.993652,-0.1074219 1.305176,0 1.949707,0.6767578 0.644532,0.6767578 0.644532,2.0517583 z"
         id="path839"
         inkscape:connector-curvature="0" />
      <path
         d="m 26.738278,8.8836555 q -0.166504,-0.09668 -0.365234,-0.1396484 -0.19336,-0.04834 -0.429688,-0.04834 -0.837891,0 -1.289062,0.5478515 -0.445801,0.5424805 -0.445801,1.5629884 v 3.168945 H 23.21484 V 7.9598274 h 0.993653 v 0.9345703 q 0.311523,-0.5478515 0.811035,-0.8110351 0.499512,-0.2685547 1.213867,-0.2685547 0.102051,0 0.225586,0.016113 0.123535,0.010742 0.273926,0.037598 z"
         id="path841"
         inkscape:connector-curvature="0" />
      <path
         d="m 27.737301,5.6180305 h 0.993653 v 4.9360355 l 2.94873,-2.5942386 h 1.262207 l -3.190429,2.8144536 3.324707,3.201171 h -1.289063 l -3.056152,-2.937988 v 2.937988 h -0.993653 z"
         id="path843"
         inkscape:connector-curvature="0" />
      <path
         d="m 38.898434,10.72057 v 0.483398 h -4.543945 q 0.06445,1.020508 0.612305,1.557617 0.553222,0.531739 1.536132,0.531739 0.569336,0 1.101075,-0.139649 0.537109,-0.139648 1.063476,-0.418945 v 0.93457 q -0.531738,0.225586 -1.090332,0.34375 -0.558594,0.118164 -1.133301,0.118164 -1.439453,0 -2.282715,-0.83789 -0.83789,-0.837891 -0.83789,-2.266602 0,-1.4770508 0.794922,-2.3417969 0.800293,-0.8701172 2.153808,-0.8701172 1.213868,0 1.917481,0.7841797 0.708984,0.7788086 0.708984,2.1215824 z M 37.910153,10.430531 Q 37.899411,9.6194954 37.45361,9.136097 37.01318,8.6526985 36.282712,8.6526985 q -0.827149,0 -1.326661,0.4672852 -0.49414,0.4672851 -0.569336,1.3159183 z"
         id="path845"
         inkscape:connector-curvature="0" />
      <path
         d="m 41.498044,6.2518196 v 1.7080078 h 2.035644 v 0.7680664 h -2.035644 v 3.2656252 q 0,0.73584 0.19873,0.945312 0.204102,0.209473 0.821777,0.209473 h 1.015137 v 0.827148 h -1.015137 q -1.144043,0 -1.579101,-0.424316 -0.435059,-0.429687 -0.435059,-1.557617 V 8.7278938 H 39.779294 V 7.9598274 h 0.725097 V 6.2518196 Z"
         id="path847"
         inkscape:connector-curvature="0" />
      <path
         d="m 45.789547,13.073109 v 3.190429 H 44.795895 V 7.9598274 h 0.993652 v 0.913086 q 0.311524,-0.5371094 0.78418,-0.7949219 0.478027,-0.2631836 1.138672,-0.2631836 1.095703,0 1.777832,0.8701172 0.6875,0.8701172 0.6875,2.2880859 0,1.417969 -0.6875,2.288086 -0.682129,0.870117 -1.777832,0.870117 -0.660645,0 -1.138672,-0.257812 -0.472656,-0.263184 -0.78418,-0.800293 z m 3.362305,-2.100098 q 0,-1.090332 -0.451172,-1.7080078 -0.445801,-0.6230469 -1.22998,-0.6230469 -0.78418,0 -1.235352,0.6230469 -0.445801,0.6176758 -0.445801,1.7080078 0,1.090332 0.445801,1.713379 0.451172,0.617676 1.235352,0.617676 0.784179,0 1.22998,-0.617676 0.451172,-0.623047 0.451172,-1.713379 z"
         id="path849"
         inkscape:connector-curvature="0" />
      <path
         d="m 51.815915,5.6180305 h 0.988281 v 8.3574215 h -0.988281 z"
         id="path851"
         inkscape:connector-curvature="0" />
      <path
         d="m 57.605954,10.951527 q -1.197754,0 -1.659668,0.273925 -0.461914,0.273926 -0.461914,0.934571 0,0.526367 0.34375,0.83789 0.349121,0.306153 0.945312,0.306153 0.821778,0 1.315918,-0.580078 0.499512,-0.58545 0.499512,-1.552247 v -0.220214 z m 1.971191,-0.408203 v 3.432128 h -0.988281 v -0.913086 q -0.338379,0.547852 -0.843262,0.811036 -0.504883,0.257812 -1.235351,0.257812 -0.923829,0 -1.47168,-0.515625 -0.542481,-0.520996 -0.542481,-1.391113 0,-1.015137 0.676758,-1.530762 0.682129,-0.515625 2.030274,-0.515625 h 1.385742 v -0.09668 q 0,-0.6821285 -0.451172,-1.0527339 -0.445801,-0.3759766 -1.256836,-0.3759766 -0.515625,0 -1.004394,0.1235352 -0.48877,0.1235351 -0.939942,0.3706054 V 8.2337532 q 0.542481,-0.2094727 1.052734,-0.3115234 0.510254,-0.1074219 0.993653,-0.1074219 1.305176,0 1.949707,0.6767578 0.644531,0.6767578 0.644531,2.0517583 z"
         id="path853"
         inkscape:connector-curvature="0" />
      <path
         d="m 65.941891,8.1907845 v 0.9238281 q -0.418945,-0.2309571 -0.843262,-0.34375 -0.418945,-0.1181641 -0.848632,-0.1181641 -0.961426,0 -1.493164,0.6123047 -0.531739,0.6069336 -0.531739,1.7080078 0,1.101074 0.531739,1.713379 0.531738,0.606934 1.493164,0.606934 0.429687,0 0.848632,-0.112793 0.424317,-0.118165 0.843262,-0.349122 v 0.913086 q -0.413574,0.19336 -0.859375,0.290039 -0.440429,0.09668 -0.939941,0.09668 -1.358887,0 -2.15918,-0.854004 -0.800293,-0.854004 -0.800293,-2.304199 0,-1.4716797 0.805664,-2.3149414 0.811035,-0.8432617 2.218262,-0.8432617 0.456543,0 0.891601,0.09668 0.435059,0.091309 0.843262,0.2792966 z"
         id="path855"
         inkscape:connector-curvature="0" />
      <path
         d="m 72.806149,10.72057 v 0.483398 h -4.543945 q 0.06445,1.020508 0.612304,1.557617 0.553223,0.531739 1.536133,0.531739 0.569336,0 1.101074,-0.139649 0.53711,-0.139648 1.063477,-0.418945 v 0.93457 q -0.531738,0.225586 -1.090332,0.34375 -0.558594,0.118164 -1.133301,0.118164 -1.439453,0 -2.282715,-0.83789 -0.83789,-0.837891 -0.83789,-2.266602 0,-1.4770508 0.794922,-2.3417969 0.800293,-0.8701172 2.153808,-0.8701172 1.213867,0 1.917481,0.7841797 0.708984,0.7788086 0.708984,2.1215824 z m -0.988281,-0.290039 q -0.01074,-0.8110356 -0.456543,-1.294434 -0.44043,-0.4833985 -1.170899,-0.4833985 -0.827148,0 -1.32666,0.4672852 -0.49414,0.4672851 -0.569336,1.3159183 z"
         id="path857"
         inkscape:connector-curvature="0" />
    </g>
  </g>
  <g
     aria-label="roles-ansible/check-ansible-alpine-latest-action"
     id="text729"
     style="font-size:10.9556px;font-family:Lato;-inkscape-font-specification:Lato;text-align:center;letter-spacing:0px;word-spacing:0px;text-anchor:middle;fill:#010101;fill-opacity:0.3;stroke-width:0.1">
    <path
       d="m 101.47782,10.44393 q -0.16583,-0.09629 -0.36376,-0.139084 -0.19258,-0.04814 -0.42795,-0.04814 -0.834512,0 -1.283863,0.54564 -0.444001,0.540291 -0.444001,1.55668 v 3.156154 H 97.968604 V 9.5238312 h 0.989642 v 0.9307978 q 0.310266,-0.54564 0.807761,-0.8077612 0.497493,-0.2674707 1.208973,-0.2674707 0.10163,0 0.22467,0.016048 0.12304,0.010699 0.27282,0.037446 z"
       style="-inkscape-font-specification:'DejaVu Sans, Verdana, Geneva, sans-serif'"
       id="path1669" />
    <path
       d="m 104.59118,10.213906 q -0.79171,0 -1.25176,0.620532 -0.46005,0.615182 -0.46005,1.690414 0,1.075233 0.4547,1.695765 0.46005,0.615182 1.25711,0.615182 0.78636,0 1.24641,-0.620532 0.46005,-0.620532 0.46005,-1.690415 0,-1.064533 -0.46005,-1.685065 -0.46005,-0.625881 -1.24641,-0.625881 z m 0,-0.8345089 q 1.28386,0 2.01673,0.8345089 0.73287,0.834508 0.73287,2.310946 0,1.471089 -0.73287,2.310947 -0.73287,0.834509 -2.01673,0.834509 -1.28921,0 -2.02208,-0.834509 -0.72752,-0.839858 -0.72752,-2.310947 0,-1.476438 0.72752,-2.310946 0.73287,-0.8345089 2.02208,-0.8345089 z"
       style="-inkscape-font-specification:'DejaVu Sans, Verdana, Geneva, sans-serif'"
       id="path1666" />
    <path
       d="m 108.97235,7.1914867 h 0.98429 v 8.3236883 h -0.98429 z"
       style="-inkscape-font-specification:'DejaVu Sans, Verdana, Geneva, sans-serif'"
       id="path1663" />
    <path
       d="m 117.1409,12.27343 v 0.481447 h -4.5256 q 0.0642,1.016389 0.60983,1.55133 0.55099,0.529592 1.52993,0.529592 0.56704,0 1.09663,-0.139084 0.53495,-0.139085 1.05919,-0.417255 v 0.930798 q -0.52959,0.224676 -1.08593,0.342363 -0.55634,0.117687 -1.12873,0.117687 -1.43364,0 -2.2735,-0.834509 -0.83451,-0.834508 -0.83451,-2.257452 0,-1.471089 0.79172,-2.332345 0.79706,-0.8666049 2.14511,-0.8666049 1.20897,0 1.90974,0.7810139 0.70612,0.775666 0.70612,2.113019 z m -0.98429,-0.288868 q -0.0107,-0.807762 -0.4547,-1.289209 -0.43865,-0.481447 -1.16617,-0.481447 -0.82381,0 -1.32131,0.465399 -0.49214,0.465399 -0.56703,1.310606 z"
       style="-inkscape-font-specification:'DejaVu Sans, Verdana, Geneva, sans-serif'"
       id="path1660" />
    <path
       d="M 122.57591,9.7003619 V 10.63116 q -0.41725,-0.213977 -0.86661,-0.320965 -0.44935,-0.106988 -0.93079,-0.106988 -0.73287,0 -1.10198,0.224675 -0.36376,0.224676 -0.36376,0.674026 0,0.342363 0.26212,0.540291 0.26212,0.192579 1.05383,0.36911 l 0.33702,0.07489 q 1.04848,0.224675 1.48713,0.63658 0.444,0.406555 0.444,1.139425 0,0.834509 -0.66332,1.321305 -0.65798,0.486797 -1.81345,0.486797 -0.48145,0 -1.00569,-0.09629 -0.5189,-0.09094 -1.09663,-0.278169 V 14.27946 q 0.54564,0.283519 1.07523,0.427953 0.52959,0.139085 1.04848,0.139085 0.69543,0 1.06989,-0.235374 0.37446,-0.240724 0.37446,-0.674026 0,-0.401206 -0.27283,-0.615183 -0.26747,-0.213976 -1.18222,-0.411905 l -0.34236,-0.08024 q -0.91475,-0.192579 -1.3213,-0.588435 -0.40656,-0.401207 -0.40656,-1.09663 0,-0.845208 0.59914,-1.3052573 0.59913,-0.4600496 1.70111,-0.4600496 0.54564,0 1.02709,0.080241 0.48144,0.080241 0.888,0.2407236 z"
       style="-inkscape-font-specification:'DejaVu Sans, Verdana, Geneva, sans-serif'"
       id="path1657" />
    <path
       d="m 123.96676,12.075502 h 2.88333 v 0.877304 h -2.88333 z"
       style="-inkscape-font-specification:'DejaVu Sans, Verdana, Geneva, sans-serif'"
       id="path1654" />
    <path
       d="m 131.14032,12.503455 q -1.19292,0 -1.65297,0.27282 -0.46005,0.27282 -0.46005,0.930798 0,0.524243 0.34236,0.834509 0.34772,0.304916 0.9415,0.304916 0.81846,0 1.31061,-0.577737 0.49749,-0.583086 0.49749,-1.54598 v -0.219326 z m 1.96324,-0.406556 v 3.418276 h -0.9843 v -0.909401 q -0.33701,0.545641 -0.83985,0.807762 -0.50285,0.256772 -1.23037,0.256772 -0.9201,0 -1.46574,-0.513544 -0.54029,-0.518893 -0.54029,-1.385498 0,-1.011039 0.67403,-1.524583 0.67937,-0.513544 2.02207,-0.513544 h 1.38015 v -0.09629 q 0,-0.679376 -0.44935,-1.048485 -0.444,-0.374459 -1.25176,-0.374459 -0.51354,0 -1.00034,0.123036 -0.4868,0.123037 -0.93615,0.36911 V 9.7966513 q 0.54029,-0.2086271 1.04849,-0.310266 0.50819,-0.1069882 0.98964,-0.1069882 1.29991,0 1.94184,0.6740259 0.64193,0.674026 0.64193,2.043476 z"
       style="-inkscape-font-specification:'DejaVu Sans, Verdana, Geneva, sans-serif'"
       id="path1651" />
    <path
       d="m 140.11129,11.898971 v 3.616204 h -0.9843 v -3.584107 q 0,-0.850557 -0.33166,-1.273161 -0.33166,-0.422604 -0.99499,-0.422604 -0.79706,0 -1.25711,0.508195 -0.46005,0.508194 -0.46005,1.385498 v 3.386179 h -0.98964 V 9.5238312 h 0.98964 v 0.9307978 q 0.35306,-0.5402905 0.82916,-0.8077612 0.48144,-0.2674707 1.10733,-0.2674707 1.03243,0 1.56202,0.6419299 0.5296,0.63658 0.5296,1.877644 z"
       style="-inkscape-font-specification:'DejaVu Sans, Verdana, Geneva, sans-serif'"
       id="path1648" />
    <path
       d="M 145.89401,9.7003619 V 10.63116 q -0.41726,-0.213977 -0.86661,-0.320965 -0.44935,-0.106988 -0.9308,-0.106988 -0.73287,0 -1.10198,0.224675 -0.36376,0.224676 -0.36376,0.674026 0,0.342363 0.26212,0.540291 0.26213,0.192579 1.05384,0.36911 l 0.33701,0.07489 q 1.04849,0.224675 1.48714,0.63658 0.444,0.406555 0.444,1.139425 0,0.834509 -0.66333,1.321305 -0.65797,0.486797 -1.81345,0.486797 -0.48145,0 -1.00569,-0.09629 -0.51889,-0.09094 -1.09663,-0.278169 V 14.27946 q 0.54564,0.283519 1.07523,0.427953 0.5296,0.139085 1.04849,0.139085 0.69542,0 1.06988,-0.235374 0.37446,-0.240724 0.37446,-0.674026 0,-0.401206 -0.27282,-0.615183 -0.26747,-0.213976 -1.18222,-0.411905 l -0.34236,-0.08024 q -0.91475,-0.192579 -1.32131,-0.588435 -0.40655,-0.401207 -0.40655,-1.09663 0,-0.845208 0.59913,-1.3052573 0.59914,-0.4600496 1.70112,-0.4600496 0.54564,0 1.02708,0.080241 0.48145,0.080241 0.88801,0.2407236 z"
       style="-inkscape-font-specification:'DejaVu Sans, Verdana, Geneva, sans-serif'"
       id="path1645" />
    <path
       d="m 147.78235,9.5238312 h 0.98429 v 5.9913438 h -0.98429 z m 0,-2.3323445 h 0.98429 v 1.2464135 h -0.98429 z"
       style="-inkscape-font-specification:'DejaVu Sans, Verdana, Geneva, sans-serif'"
       id="path1642" />
    <path
       d="m 155.12709,12.524852 q 0,-1.085931 -0.44935,-1.701113 -0.444,-0.620532 -1.22501,-0.620532 -0.78102,0 -1.23037,0.620532 -0.444,0.615182 -0.444,1.701113 0,1.085931 0.444,1.706464 0.44935,0.615182 1.23037,0.615182 0.78101,0 1.22501,-0.615182 0.44935,-0.620533 0.44935,-1.706464 z m -3.34873,-2.09162 q 0.31027,-0.5349418 0.78101,-0.7917137 0.4761,-0.2621212 1.13408,-0.2621212 1.09128,0 1.77066,0.8666049 0.68472,0.866605 0.68472,2.27885 0,1.412246 -0.68472,2.278851 -0.67938,0.866605 -1.77066,0.866605 -0.65798,0 -1.13408,-0.256772 -0.47074,-0.262121 -0.78101,-0.797063 v 0.898702 h -0.98964 V 7.1914867 h 0.98964 z"
       style="-inkscape-font-specification:'DejaVu Sans, Verdana, Geneva, sans-serif'"
       id="path1639" />
    <path
       d="m 157.7804,7.1914867 h 0.9843 v 8.3236883 h -0.9843 z"
       style="-inkscape-font-specification:'DejaVu Sans, Verdana, Geneva, sans-serif'"
       id="path1636" />
    <path
       d="m 165.94896,12.27343 v 0.481447 h -4.52561 q 0.0642,1.016389 0.60984,1.55133 0.55099,0.529592 1.52993,0.529592 0.56704,0 1.09663,-0.139084 0.53494,-0.139085 1.05918,-0.417255 v 0.930798 q -0.52959,0.224676 -1.08593,0.342363 -0.55634,0.117687 -1.12872,0.117687 -1.43365,0 -2.27351,-0.834509 -0.8345,-0.834508 -0.8345,-2.257452 0,-1.471089 0.79171,-2.332345 0.79706,-0.8666049 2.14511,-0.8666049 1.20897,0 1.90974,0.7810139 0.70613,0.775666 0.70613,2.113019 z m -0.98429,-0.288868 q -0.0107,-0.807762 -0.4547,-1.289209 -0.43866,-0.481447 -1.16618,-0.481447 -0.82381,0 -1.3213,0.465399 -0.49215,0.465399 -0.56704,1.310606 z"
       style="-inkscape-font-specification:'DejaVu Sans, Verdana, Geneva, sans-serif'"
       id="path1633" />
    <path
       d="m 169.31373,7.5284998 h 0.9094 l -2.78169,9.0030642 h -0.9094 z"
       style="-inkscape-font-specification:'DejaVu Sans, Verdana, Geneva, sans-serif'"
       id="path1630" />
    <path
       d="m 175.5672,9.753856 v 0.920099 q -0.41725,-0.230025 -0.83985,-0.342362 -0.41726,-0.117687 -0.84521,-0.117687 -0.95755,0 -1.48714,0.609833 -0.52959,0.604484 -0.52959,1.701113 0,1.09663 0.52959,1.706464 0.52959,0.604483 1.48714,0.604483 0.42795,0 0.84521,-0.112337 0.4226,-0.117688 0.83985,-0.347712 v 0.9094 q -0.4119,0.192579 -0.8559,0.288868 -0.43865,0.09629 -0.93615,0.09629 -1.3534,0 -2.15046,-0.850557 -0.79707,-0.850557 -0.79707,-2.294899 0,-1.465739 0.80242,-2.305597 0.80776,-0.8398579 2.2093,-0.8398579 0.4547,0 0.88801,0.096289 0.4333,0.09094 0.83985,0.2781695 z"
       style="-inkscape-font-specification:'DejaVu Sans, Verdana, Geneva, sans-serif'"
       id="path1627" />
    <path
       d="m 182.25932,11.898971 v 3.616204 h -0.98429 v -3.584107 q 0,-0.850557 -0.33167,-1.273161 -0.33166,-0.422604 -0.99499,-0.422604 -0.79706,0 -1.25711,0.508195 -0.46005,0.508194 -0.46005,1.385498 v 3.386179 h -0.98964 V 7.1914867 h 0.98964 v 3.2631423 q 0.35306,-0.5402905 0.82916,-0.8077612 0.48145,-0.2674707 1.10733,-0.2674707 1.03244,0 1.56203,0.6419299 0.52959,0.63658 0.52959,1.877644 z"
       style="-inkscape-font-specification:'DejaVu Sans, Verdana, Geneva, sans-serif'"
       id="path1624" />
    <path
       d="m 189.3473,12.27343 v 0.481447 h -4.52561 q 0.0642,1.016389 0.60983,1.55133 0.55099,0.529592 1.52994,0.529592 0.56704,0 1.09663,-0.139084 0.53494,-0.139085 1.05918,-0.417255 v 0.930798 q -0.52959,0.224676 -1.08593,0.342363 -0.55634,0.117687 -1.12873,0.117687 -1.43364,0 -2.2735,-0.834509 -0.83451,-0.834508 -0.83451,-2.257452 0,-1.471089 0.79172,-2.332345 0.79706,-0.8666049 2.14511,-0.8666049 1.20897,0 1.90974,0.7810139 0.70613,0.775666 0.70613,2.113019 z m -0.9843,-0.288868 q -0.0107,-0.807762 -0.4547,-1.289209 -0.43865,-0.481447 -1.16617,-0.481447 -0.82381,0 -1.3213,0.465399 -0.49215,0.465399 -0.56704,1.310606 z"
       style="-inkscape-font-specification:'DejaVu Sans, Verdana, Geneva, sans-serif'"
       id="path1621" />
    <path
       d="m 195.27444,9.753856 v 0.920099 q -0.41725,-0.230025 -0.83986,-0.342362 -0.41725,-0.117687 -0.8452,-0.117687 -0.95755,0 -1.48714,0.609833 -0.52959,0.604484 -0.52959,1.701113 0,1.09663 0.52959,1.706464 0.52959,0.604483 1.48714,0.604483 0.42795,0 0.8452,-0.112337 0.42261,-0.117688 0.83986,-0.347712 v 0.9094 q -0.4119,0.192579 -0.8559,0.288868 -0.43866,0.09629 -0.93615,0.09629 -1.3534,0 -2.15047,-0.850557 -0.79706,-0.850557 -0.79706,-2.294899 0,-1.465739 0.80241,-2.305597 0.80776,-0.8398579 2.20931,-0.8398579 0.4547,0 0.888,0.096289 0.43331,0.09094 0.83986,0.2781695 z"
       style="-inkscape-font-specification:'DejaVu Sans, Verdana, Geneva, sans-serif'"
       id="path1618" />
    <path
       d="m 196.94881,7.1914867 h 0.98964 v 4.9161113 l 2.93683,-2.5837668 h 1.25711 l -3.17755,2.8030928 3.31128,3.188251 h -1.28386 l -3.04381,-2.92613 v 2.92613 h -0.98964 z"
       style="-inkscape-font-specification:'DejaVu Sans, Verdana, Geneva, sans-serif'"
       id="path1615" />
    <path
       d="m 202.83316,12.075502 h 2.88334 v 0.877304 h -2.88334 z"
       style="-inkscape-font-specification:'DejaVu Sans, Verdana, Geneva, sans-serif'"
       id="path1612" />
    <path
       d="m 210.00673,12.503455 q -1.19292,0 -1.65297,0.27282 -0.46005,0.27282 -0.46005,0.930798 0,0.524243 0.34236,0.834509 0.34771,0.304916 0.9415,0.304916 0.81846,0 1.3106,-0.577737 0.4975,-0.583086 0.4975,-1.54598 v -0.219326 z m 1.96323,-0.406556 v 3.418276 h -0.98429 v -0.909401 q -0.33701,0.545641 -0.83986,0.807762 -0.50284,0.256772 -1.23036,0.256772 -0.9201,0 -1.46574,-0.513544 -0.54029,-0.518893 -0.54029,-1.385498 0,-1.011039 0.67402,-1.524583 0.67938,-0.513544 2.02208,-0.513544 h 1.38015 v -0.09629 q 0,-0.679376 -0.44935,-1.048485 -0.444,-0.374459 -1.25176,-0.374459 -0.51355,0 -1.00034,0.123036 -0.4868,0.123037 -0.93615,0.36911 V 9.7966513 q 0.54029,-0.2086271 1.04848,-0.310266 0.5082,-0.1069882 0.98964,-0.1069882 1.29991,0 1.94184,0.6740259 0.64193,0.674026 0.64193,2.043476 z"
       style="-inkscape-font-specification:'DejaVu Sans, Verdana, Geneva, sans-serif'"
       id="path1609" />
    <path
       d="m 218.9777,11.898971 v 3.616204 h -0.9843 v -3.584107 q 0,-0.850557 -0.33166,-1.273161 -0.33166,-0.422604 -0.99499,-0.422604 -0.79706,0 -1.25711,0.508195 -0.46005,0.508194 -0.46005,1.385498 v 3.386179 h -0.98964 V 9.5238312 h 0.98964 v 0.9307978 q 0.35306,-0.5402905 0.82916,-0.8077612 0.48144,-0.2674707 1.10732,-0.2674707 1.03244,0 1.56203,0.6419299 0.5296,0.63658 0.5296,1.877644 z"
       style="-inkscape-font-specification:'DejaVu Sans, Verdana, Geneva, sans-serif'"
       id="path1606" />
    <path
       d="M 224.76041,9.7003619 V 10.63116 q -0.41725,-0.213977 -0.8666,-0.320965 -0.44935,-0.106988 -0.9308,-0.106988 -0.73287,0 -1.10198,0.224675 -0.36376,0.224676 -0.36376,0.674026 0,0.342363 0.26212,0.540291 0.26213,0.192579 1.05384,0.36911 l 0.33701,0.07489 q 1.04849,0.224675 1.48714,0.63658 0.444,0.406555 0.444,1.139425 0,0.834509 -0.66333,1.321305 -0.65798,0.486797 -1.81345,0.486797 -0.48145,0 -1.00569,-0.09629 -0.51889,-0.09094 -1.09663,-0.278169 V 14.27946 q 0.54564,0.283519 1.07523,0.427953 0.5296,0.139085 1.04849,0.139085 0.69542,0 1.06988,-0.235374 0.37446,-0.240724 0.37446,-0.674026 0,-0.401206 -0.27282,-0.615183 -0.26747,-0.213976 -1.18222,-0.411905 l -0.34236,-0.08024 q -0.91475,-0.192579 -1.32131,-0.588435 -0.40655,-0.401207 -0.40655,-1.09663 0,-0.845208 0.59913,-1.3052573 0.59914,-0.4600496 1.70111,-0.4600496 0.54564,0 1.02709,0.080241 0.48145,0.080241 0.888,0.2407236 z"
       style="-inkscape-font-specification:'DejaVu Sans, Verdana, Geneva, sans-serif'"
       id="path1603" />
    <path
       d="m 226.64875,9.5238312 h 0.98429 v 5.9913438 h -0.98429 z m 0,-2.3323445 h 0.98429 v 1.2464135 h -0.98429 z"
       style="-inkscape-font-specification:'DejaVu Sans, Verdana, Geneva, sans-serif'"
       id="path1600" />
    <path
       d="m 233.9935,12.524852 q 0,-1.085931 -0.44935,-1.701113 -0.444,-0.620532 -1.22501,-0.620532 -0.78102,0 -1.23037,0.620532 -0.444,0.615182 -0.444,1.701113 0,1.085931 0.444,1.706464 0.44935,0.615182 1.23037,0.615182 0.78101,0 1.22501,-0.615182 0.44935,-0.620533 0.44935,-1.706464 z m -3.34873,-2.09162 q 0.31027,-0.5349418 0.78101,-0.7917137 0.4761,-0.2621212 1.13408,-0.2621212 1.09128,0 1.77066,0.8666049 0.68472,0.866605 0.68472,2.27885 0,1.412246 -0.68472,2.278851 -0.67938,0.866605 -1.77066,0.866605 -0.65798,0 -1.13408,-0.256772 -0.47074,-0.262121 -0.78101,-0.797063 v 0.898702 h -0.98964 V 7.1914867 h 0.98964 z"
       style="-inkscape-font-specification:'DejaVu Sans, Verdana, Geneva, sans-serif'"
       id="path1597" />
    <path
       d="m 236.64681,7.1914867 h 0.98429 v 8.3236883 h -0.98429 z"
       style="-inkscape-font-specification:'DejaVu Sans, Verdana, Geneva, sans-serif'"
       id="path1594" />
    <path
       d="m 244.81536,12.27343 v 0.481447 h -4.52561 q 0.0642,1.016389 0.60984,1.55133 0.55099,0.529592 1.52993,0.529592 0.56704,0 1.09663,-0.139084 0.53494,-0.139085 1.05918,-0.417255 v 0.930798 q -0.52959,0.224676 -1.08593,0.342363 -0.55634,0.117687 -1.12872,0.117687 -1.43365,0 -2.2735,-0.834509 -0.83451,-0.834508 -0.83451,-2.257452 0,-1.471089 0.79171,-2.332345 0.79706,-0.8666049 2.14512,-0.8666049 1.20896,0 1.90974,0.7810139 0.70612,0.775666 0.70612,2.113019 z m -0.98429,-0.288868 q -0.0107,-0.807762 -0.4547,-1.289209 -0.43866,-0.481447 -1.16618,-0.481447 -0.82381,0 -1.3213,0.465399 -0.49215,0.465399 -0.56704,1.310606 z"
       style="-inkscape-font-specification:'DejaVu Sans, Verdana, Geneva, sans-serif'"
       id="path1591" />
    <path
       d="m 245.93339,12.075502 h 2.88333 v 0.877304 h -2.88333 z"
       style="-inkscape-font-specification:'DejaVu Sans, Verdana, Geneva, sans-serif'"
       id="path1588" />
    <path
       d="m 253.10695,12.503455 q -1.19292,0 -1.65297,0.27282 -0.46004,0.27282 -0.46004,0.930798 0,0.524243 0.34236,0.834509 0.34771,0.304916 0.94149,0.304916 0.81846,0 1.31061,-0.577737 0.4975,-0.583086 0.4975,-1.54598 v -0.219326 z m 1.96324,-0.406556 v 3.418276 h -0.98429 v -0.909401 q -0.33702,0.545641 -0.83986,0.807762 -0.50285,0.256772 -1.23037,0.256772 -0.9201,0 -1.46574,-0.513544 -0.54029,-0.518893 -0.54029,-1.385498 0,-1.011039 0.67403,-1.524583 0.67937,-0.513544 2.02208,-0.513544 h 1.38015 v -0.09629 q 0,-0.679376 -0.44935,-1.048485 -0.44401,-0.374459 -1.25177,-0.374459 -0.51354,0 -1.00034,0.123036 -0.48679,0.123037 -0.93615,0.36911 V 9.7966513 q 0.5403,-0.2086271 1.04849,-0.310266 0.50819,-0.1069882 0.98964,-0.1069882 1.29991,0 1.94184,0.6740259 0.64193,0.674026 0.64193,2.043476 z"
       style="-inkscape-font-specification:'DejaVu Sans, Verdana, Geneva, sans-serif'"
       id="path1585" />
    <path
       d="m 257.09762,7.1914867 h 0.98429 v 8.3236883 h -0.98429 z"
       style="-inkscape-font-specification:'DejaVu Sans, Verdana, Geneva, sans-serif'"
       id="path1582" />
    <path
       d="m 261.09364,14.616473 v 3.177552 H 260.104 V 9.5238312 h 0.98964 v 0.9094008 q 0.31026,-0.5349418 0.78101,-0.7917137 0.4761,-0.2621212 1.13408,-0.2621212 1.09128,0 1.77065,0.8666049 0.68473,0.866605 0.68473,2.27885 0,1.412246 -0.68473,2.278851 -0.67937,0.866605 -1.77065,0.866605 -0.65798,0 -1.13408,-0.256772 -0.47075,-0.262121 -0.78101,-0.797063 z m 3.34873,-2.091621 q 0,-1.085931 -0.44935,-1.701113 -0.444,-0.620532 -1.22502,-0.620532 -0.78101,0 -1.23036,0.620532 -0.444,0.615182 -0.444,1.701113 0,1.085931 0.444,1.706464 0.44935,0.615182 1.23036,0.615182 0.78102,0 1.22502,-0.615182 0.44935,-0.620533 0.44935,-1.706464 z"
       style="-inkscape-font-specification:'DejaVu Sans, Verdana, Geneva, sans-serif'"
       id="path1579" />
    <path
       d="m 267.09568,9.5238312 h 0.98429 v 5.9913438 h -0.98429 z m 0,-2.3323445 h 0.98429 v 1.2464135 h -0.98429 z"
       style="-inkscape-font-specification:'DejaVu Sans, Verdana, Geneva, sans-serif'"
       id="path1576" />
    <path
       d="m 275.11979,11.898971 v 3.616204 h -0.98429 v -3.584107 q 0,-0.850557 -0.33166,-1.273161 -0.33167,-0.422604 -0.99499,-0.422604 -0.79707,0 -1.25712,0.508195 -0.46005,0.508194 -0.46005,1.385498 v 3.386179 h -0.98964 V 9.5238312 h 0.98964 v 0.9307978 q 0.35307,-0.5402905 0.82916,-0.8077612 0.48145,-0.2674707 1.10733,-0.2674707 1.03244,0 1.56203,0.6419299 0.52959,0.63658 0.52959,1.877644 z"
       style="-inkscape-font-specification:'DejaVu Sans, Verdana, Geneva, sans-serif'"
       id="path1573" />
    <path
       d="m 282.20777,12.27343 v 0.481447 h -4.5256 q 0.0642,1.016389 0.60983,1.55133 0.55099,0.529592 1.52993,0.529592 0.56704,0 1.09663,-0.139084 0.53494,-0.139085 1.05918,-0.417255 v 0.930798 q -0.52959,0.224676 -1.08593,0.342363 -0.55634,0.117687 -1.12872,0.117687 -1.43365,0 -2.2735,-0.834509 -0.83451,-0.834508 -0.83451,-2.257452 0,-1.471089 0.79171,-2.332345 0.79706,-0.8666049 2.14512,-0.8666049 1.20896,0 1.90974,0.7810139 0.70612,0.775666 0.70612,2.113019 z m -0.98429,-0.288868 q -0.0107,-0.807762 -0.4547,-1.289209 -0.43865,-0.481447 -1.16618,-0.481447 -0.8238,0 -1.3213,0.465399 -0.49215,0.465399 -0.56704,1.310606 z"
       style="-inkscape-font-specification:'DejaVu Sans, Verdana, Geneva, sans-serif'"
       id="path1570" />
    <path
       d="m 283.3258,12.075502 h 2.88333 v 0.877304 h -2.88333 z"
       style="-inkscape-font-specification:'DejaVu Sans, Verdana, Geneva, sans-serif'"
       id="path1567" />
    <path
       d="m 287.77651,7.1914867 h 0.98429 v 8.3236883 h -0.98429 z"
       style="-inkscape-font-specification:'DejaVu Sans, Verdana, Geneva, sans-serif'"
       id="path1564" />
    <path
       d="m 293.54317,12.503455 q -1.19292,0 -1.65297,0.27282 -0.46005,0.27282 -0.46005,0.930798 0,0.524243 0.34237,0.834509 0.34771,0.304916 0.94149,0.304916 0.81846,0 1.31061,-0.577737 0.49749,-0.583086 0.49749,-1.54598 v -0.219326 z m 1.96324,-0.406556 v 3.418276 h -0.9843 v -0.909401 q -0.33701,0.545641 -0.83985,0.807762 -0.50285,0.256772 -1.23037,0.256772 -0.9201,0 -1.46574,-0.513544 -0.54029,-0.518893 -0.54029,-1.385498 0,-1.011039 0.67403,-1.524583 0.67937,-0.513544 2.02208,-0.513544 h 1.38014 v -0.09629 q 0,-0.679376 -0.44935,-1.048485 -0.444,-0.374459 -1.25176,-0.374459 -0.51354,0 -1.00034,0.123036 -0.4868,0.123037 -0.93615,0.36911 V 9.7966513 q 0.54029,-0.2086271 1.04849,-0.310266 0.50819,-0.1069882 0.98964,-0.1069882 1.29991,0 1.94184,0.6740259 0.64193,0.674026 0.64193,2.043476 z"
       style="-inkscape-font-specification:'DejaVu Sans, Verdana, Geneva, sans-serif'"
       id="path1561" />
    <path
       d="m 298.50743,7.8227176 v 1.7011136 h 2.02743 v 0.7649658 h -2.02743 v 3.252444 q 0,0.73287 0.19793,0.941497 0.20328,0.208627 0.81846,0.208627 h 1.01104 v 0.82381 h -1.01104 q -1.13943,0 -1.57273,-0.422604 -0.4333,-0.427953 -0.4333,-1.55133 v -3.252444 h -0.72217 V 9.5238312 h 0.72217 V 7.8227176 Z"
       style="-inkscape-font-specification:'DejaVu Sans, Verdana, Geneva, sans-serif'"
       id="path1558" />
    <path
       d="m 306.95415,12.27343 v 0.481447 h -4.5256 q 0.0642,1.016389 0.60983,1.55133 0.55099,0.529592 1.52993,0.529592 0.56704,0 1.09663,-0.139084 0.53495,-0.139085 1.05919,-0.417255 v 0.930798 q -0.52959,0.224676 -1.08593,0.342363 -0.55634,0.117687 -1.12873,0.117687 -1.43364,0 -2.2735,-0.834509 -0.83451,-0.834508 -0.83451,-2.257452 0,-1.471089 0.79171,-2.332345 0.79707,-0.8666049 2.14512,-0.8666049 1.20897,0 1.90974,0.7810139 0.70612,0.775666 0.70612,2.113019 z m -0.98429,-0.288868 q -0.0107,-0.807762 -0.4547,-1.289209 -0.43865,-0.481447 -1.16617,-0.481447 -0.82381,0 -1.32131,0.465399 -0.49214,0.465399 -0.56703,1.310606 z"
       style="-inkscape-font-specification:'DejaVu Sans, Verdana, Geneva, sans-serif'"
       id="path1555" />
    <path
       d="M 312.38916,9.7003619 V 10.63116 q -0.41725,-0.213977 -0.8666,-0.320965 -0.44935,-0.106988 -0.9308,-0.106988 -0.73287,0 -1.10198,0.224675 -0.36376,0.224676 -0.36376,0.674026 0,0.342363 0.26212,0.540291 0.26212,0.192579 1.05383,0.36911 l 0.33702,0.07489 q 1.04848,0.224675 1.48713,0.63658 0.44401,0.406555 0.44401,1.139425 0,0.834509 -0.66333,1.321305 -0.65798,0.486797 -1.81345,0.486797 -0.48145,0 -1.00569,-0.09629 -0.5189,-0.09094 -1.09663,-0.278169 V 14.27946 q 0.54564,0.283519 1.07523,0.427953 0.52959,0.139085 1.04848,0.139085 0.69543,0 1.06989,-0.235374 0.37446,-0.240724 0.37446,-0.674026 0,-0.401206 -0.27282,-0.615183 -0.26747,-0.213976 -1.18222,-0.411905 l -0.34237,-0.08024 q -0.91475,-0.192579 -1.3213,-0.588435 -0.40656,-0.401207 -0.40656,-1.09663 0,-0.845208 0.59914,-1.3052573 0.59913,-0.4600496 1.70111,-0.4600496 0.54564,0 1.02709,0.080241 0.48145,0.080241 0.888,0.2407236 z"
       style="-inkscape-font-specification:'DejaVu Sans, Verdana, Geneva, sans-serif'"
       id="path1552" />
    <path
       d="m 315.2511,7.8227176 v 1.7011136 h 2.02743 v 0.7649658 h -2.02743 v 3.252444 q 0,0.73287 0.19793,0.941497 0.20327,0.208627 0.81846,0.208627 h 1.01104 v 0.82381 h -1.01104 q -1.13943,0 -1.57273,-0.422604 -0.4333,-0.427953 -0.4333,-1.55133 v -3.252444 h -0.72217 V 9.5238312 h 0.72217 V 7.8227176 Z"
       style="-inkscape-font-specification:'DejaVu Sans, Verdana, Geneva, sans-serif'"
       id="path1549" />
    <path
       d="m 318.07559,12.075502 h 2.88333 v 0.877304 h -2.88333 z"
       style="-inkscape-font-specification:'DejaVu Sans, Verdana, Geneva, sans-serif'"
       id="path1546" />
    <path
       d="m 325.24915,12.503455 q -1.19292,0 -1.65297,0.27282 -0.46005,0.27282 -0.46005,0.930798 0,0.524243 0.34236,0.834509 0.34772,0.304916 0.9415,0.304916 0.81846,0 1.31061,-0.577737 0.49749,-0.583086 0.49749,-1.54598 v -0.219326 z m 1.96324,-0.406556 v 3.418276 h -0.9843 v -0.909401 q -0.33701,0.545641 -0.83985,0.807762 -0.50285,0.256772 -1.23037,0.256772 -0.9201,0 -1.46574,-0.513544 -0.54029,-0.518893 -0.54029,-1.385498 0,-1.011039 0.67403,-1.524583 0.67937,-0.513544 2.02207,-0.513544 h 1.38015 v -0.09629 q 0,-0.679376 -0.44935,-1.048485 -0.444,-0.374459 -1.25176,-0.374459 -0.51354,0 -1.00034,0.123036 -0.4868,0.123037 -0.93615,0.36911 V 9.7966513 q 0.54029,-0.2086271 1.04849,-0.310266 0.50819,-0.1069882 0.98964,-0.1069882 1.29991,0 1.94184,0.6740259 0.64193,0.674026 0.64193,2.043476 z"
       style="-inkscape-font-specification:'DejaVu Sans, Verdana, Geneva, sans-serif'"
       id="path1543" />
    <path
       d="m 333.55144,9.753856 v 0.920099 q -0.41725,-0.230025 -0.83986,-0.342362 -0.41725,-0.117687 -0.8452,-0.117687 -0.95755,0 -1.48714,0.609833 -0.52959,0.604484 -0.52959,1.701113 0,1.09663 0.52959,1.706464 0.52959,0.604483 1.48714,0.604483 0.42795,0 0.8452,-0.112337 0.42261,-0.117688 0.83986,-0.347712 v 0.9094 q -0.4119,0.192579 -0.8559,0.288868 -0.43866,0.09629 -0.93615,0.09629 -1.3534,0 -2.15047,-0.850557 -0.79706,-0.850557 -0.79706,-2.294899 0,-1.465739 0.80241,-2.305597 0.80777,-0.8398579 2.20931,-0.8398579 0.4547,0 0.888,0.096289 0.43331,0.09094 0.83986,0.2781695 z"
       style="-inkscape-font-specification:'DejaVu Sans, Verdana, Geneva, sans-serif'"
       id="path1540" />
    <path
       d="m 336.23685,7.8227176 v 1.7011136 h 2.02742 v 0.7649658 h -2.02742 v 3.252444 q 0,0.73287 0.19792,0.941497 0.20328,0.208627 0.81846,0.208627 h 1.01104 v 0.82381 h -1.01104 q -1.13942,0 -1.57272,-0.422604 -0.43331,-0.427953 -0.43331,-1.55133 v -3.252444 h -0.72217 V 9.5238312 h 0.72217 V 7.8227176 Z"
       style="-inkscape-font-specification:'DejaVu Sans, Verdana, Geneva, sans-serif'"
       id="path1537" />
    <path
       d="m 339.55883,9.5238312 h 0.98429 v 5.9913438 h -0.98429 z m 0,-2.3323445 h 0.98429 v 1.2464135 h -0.98429 z"
       style="-inkscape-font-specification:'DejaVu Sans, Verdana, Geneva, sans-serif'"
       id="path1534" />
    <path
       d="m 344.9243,10.213906 q -0.79171,0 -1.25176,0.620532 -0.46005,0.615182 -0.46005,1.690414 0,1.075233 0.4547,1.695765 0.46005,0.615182 1.25711,0.615182 0.78636,0 1.24641,-0.620532 0.46005,-0.620532 0.46005,-1.690415 0,-1.064533 -0.46005,-1.685065 -0.46005,-0.625881 -1.24641,-0.625881 z m 0,-0.8345089 q 1.28386,0 2.01673,0.8345089 0.73287,0.834508 0.73287,2.310946 0,1.471089 -0.73287,2.310947 -0.73287,0.834509 -2.01673,0.834509 -1.28921,0 -2.02208,-0.834509 -0.72752,-0.839858 -0.72752,-2.310947 0,-1.476438 0.72752,-2.310946 0.73287,-0.8345089 2.02208,-0.8345089 z"
       style="-inkscape-font-specification:'DejaVu Sans, Verdana, Geneva, sans-serif'"
       id="path1531" />
    <path
       d="m 354.28578,11.898971 v 3.616204 h -0.98429 v -3.584107 q 0,-0.850557 -0.33167,-1.273161 -0.33166,-0.422604 -0.99499,-0.422604 -0.79706,0 -1.25711,0.508195 -0.46005,0.508194 -0.46005,1.385498 v 3.386179 h -0.98964 V 9.5238312 h 0.98964 v 0.9307978 q 0.35306,-0.5402905 0.82916,-0.8077612 0.48145,-0.2674707 1.10733,-0.2674707 1.03243,0 1.56203,0.6419299 0.52959,0.63658 0.52959,1.877644 z"
       style="-inkscape-font-specification:'DejaVu Sans, Verdana, Geneva, sans-serif'"
       id="path1528" />
  </g>
  <g
     transform="matrix(0.46918087,0,0,0.46918087,4.2493644,4.6309249)"
     id="g1012"
     style="color:#ffffff;opacity:1;vector-effect:none;fill:#010101;fill-opacity:0.3;stroke:none;stroke-width:0.23255815;stroke-linecap:butt;stroke-linejoin:miter;stroke-miterlimit:4;stroke-dasharray:none;stroke-dashoffset:0;stroke-opacity:1">
    <circle
       cx="12"
       cy="12"
       r="10"
       id="circle998"
       style="vector-effect:none;fill:#010101;fill-opacity:0.3;stroke:none;stroke-width:0.23255815;stroke-linecap:butt;stroke-linejoin:miter;stroke-miterlimit:4;stroke-dasharray:none;stroke-dashoffset:0;stroke-opacity:1" />
    <line
       x1="14.31"
       y1="8"
       x2="20.049999"
       y2="17.940001"
       id="line1000"
       style="vector-effect:none;fill:#010101;fill-opacity:0.3;stroke:none;stroke-width:0.23255815;stroke-linecap:butt;stroke-linejoin:miter;stroke-miterlimit:4;stroke-dasharray:none;stroke-dashoffset:0;stroke-opacity:1" />
    <line
       x1="9.6899996"
       y1="8"
       x2="21.17"
       y2="8"
       id="line1002"
       style="vector-effect:none;fill:#010101;fill-opacity:0.3;stroke:none;stroke-width:0.23255815;stroke-linecap:butt;stroke-linejoin:miter;stroke-miterlimit:4;stroke-dasharray:none;stroke-dashoffset:0;stroke-opacity:1" />
    <line
       x1="7.3800001"
       y1="12"
       x2="13.12"
       y2="2.0599999"
       id="line1004"
       style="vector-effect:none;fill:#010101;fill-opacity:0.3;stroke:none;stroke-width:0.23255815;stroke-linecap:butt;stroke-linejoin:miter;stroke-miterlimit:4;stroke-dasharray:none;stroke-dashoffset:0;stroke-opacity:1" />
    <line
       x1="9.6899996"
       y1="16"
       x2="3.95"
       y2="6.0599999"
       id="line1006"
       style="vector-effect:none;fill:#010101;fill-opacity:0.3;stroke:none;stroke-width:0.23255815;stroke-linecap:butt;stroke-linejoin:miter;stroke-miterlimit:4;stroke-dasharray:none;stroke-dashoffset:0;stroke-opacity:1" />
    <line
       x1="14.31"
       y1="16"
       x2="2.8299999"
       y2="16"
       id="line1008"
       style="vector-effect:none;fill:#010101;fill-opacity:0.3;stroke:none;stroke-width:0.23255815;stroke-linecap:butt;stroke-linejoin:miter;stroke-miterlimit:4;stroke-dasharray:none;stroke-dashoffset:0;stroke-opacity:1" />
    <line
       x1="16.620001"
       y1="12"
       x2="10.88"
       y2="21.940001"
       id="line1010"
       style="vector-effect:none;fill:#010101;fill-opacity:0.3;stroke:none;stroke-width:0.23255815;stroke-linecap:butt;stroke-linejoin:miter;stroke-miterlimit:4;stroke-dasharray:none;stroke-dashoffset:0;stroke-opacity:1" />
  </g>
  <g
     style="color:#ffffff;fill:none;stroke:currentColor;stroke-width:2;stroke-linecap:round;stroke-linejoin:round"
     id="g987"
     transform="matrix(0.42999999,0,0,0.42999999,4.7587164,4.2589983)">
    <circle
       id="circle958"
       r="10"
       cy="12"
       cx="12" />
    <line
       id="line960"
       y2="17.940001"
       x2="20.049999"
       y1="8"
       x1="14.31" />
    <line
       id="line962"
       y2="8"
       x2="21.17"
       y1="8"
       x1="9.6899996" />
    <line
       id="line964"
       y2="2.0599999"
       x2="13.12"
       y1="12"
       x1="7.3800001" />
    <line
       id="line966"
       y2="6.0599999"
       x2="3.95"
       y1="16"
       x1="9.6899996" />
    <line
       id="line968"
       y2="16"
       x2="2.8299999"
       y1="16"
       x1="14.31" />
    <line
       id="line970"
       y2="21.940001"
       x2="10.88"
       y1="12"
       x1="16.620001" />
  </g>
  <g
     aria-label="roles-ansible/check-ansible-alpine-latest-action"
     id="text541"
     style="font-size:10.9556px;font-family:Lato;-inkscape-font-specification:Lato;text-align:center;letter-spacing:0px;word-spacing:0px;text-anchor:middle;fill:#ffffff;stroke-width:0.273895">
    <path
       d="m 101.47782,9.1952236 q -0.16583,-0.096289 -0.36376,-0.1390847 -0.19258,-0.048145 -0.42795,-0.048145 -0.834512,0 -1.283863,0.5456403 -0.444001,0.5402906 -0.444001,1.5566796 v 3.156154 H 97.968604 V 8.2751244 h 0.989642 v 0.930798 q 0.310266,-0.5456402 0.807761,-0.8077615 0.497493,-0.2674707 1.208973,-0.2674707 0.10163,0 0.22467,0.016048 0.12304,0.010699 0.27282,0.037446 z"
       style="-inkscape-font-specification:'DejaVu Sans, Verdana, Geneva, sans-serif'"
       id="path1525" />
    <path
       d="m 104.59118,8.9651988 q -0.79171,0 -1.25176,0.620532 -0.46005,0.6151822 -0.46005,1.6904152 0,1.075232 0.4547,1.695764 0.46005,0.615182 1.25711,0.615182 0.78636,0 1.24641,-0.620532 0.46005,-0.620532 0.46005,-1.690414 0,-1.064534 -0.46005,-1.6850658 -0.46005,-0.6258814 -1.24641,-0.6258814 z m 0,-0.8345086 q 1.28386,0 2.01673,0.8345086 0.73287,0.8345086 0.73287,2.3109472 0,1.471088 -0.73287,2.310946 -0.73287,0.834509 -2.01673,0.834509 -1.28921,0 -2.02208,-0.834509 -0.72752,-0.839858 -0.72752,-2.310946 0,-1.4764386 0.72752,-2.3109472 0.73287,-0.8345086 2.02208,-0.8345086 z"
       style="-inkscape-font-specification:'DejaVu Sans, Verdana, Geneva, sans-serif'"
       id="path1522" />
    <path
       d="m 108.97235,5.9427799 h 0.98429 v 8.3236881 h -0.98429 z"
       style="-inkscape-font-specification:'DejaVu Sans, Verdana, Geneva, sans-serif'"
       id="path1519" />
    <path
       d="m 117.1409,11.024723 v 0.481447 h -4.5256 q 0.0642,1.016389 0.60983,1.55133 0.55099,0.529592 1.52993,0.529592 0.56704,0 1.09663,-0.139084 0.53495,-0.139085 1.05919,-0.417255 v 0.930798 q -0.52959,0.224676 -1.08593,0.342363 -0.55634,0.117687 -1.12873,0.117687 -1.43364,0 -2.2735,-0.834509 -0.83451,-0.834508 -0.83451,-2.257452 0,-1.4710891 0.79172,-2.3323447 0.79706,-0.8666051 2.14511,-0.8666051 1.20897,0 1.90974,0.7810145 0.70612,0.775665 0.70612,2.1130183 z m -0.98429,-0.288868 q -0.0107,-0.8077617 -0.4547,-1.2892089 -0.43865,-0.4814473 -1.16617,-0.4814473 -0.82381,0 -1.32131,0.465399 -0.49214,0.465399 -0.56703,1.3106062 z"
       style="-inkscape-font-specification:'DejaVu Sans, Verdana, Geneva, sans-serif'"
       id="path1516" />
    <path
       d="m 122.57591,8.4516551 v 0.930798 Q 122.15866,9.1684765 121.7093,9.0614883 121.25995,8.9545 120.77851,8.9545 q -0.73287,0 -1.10198,0.2246754 -0.36376,0.2246754 -0.36376,0.6740261 0,0.3423625 0.26212,0.5402905 0.26212,0.192579 1.05383,0.36911 l 0.33702,0.07489 q 1.04848,0.224675 1.48713,0.63658 0.444,0.406555 0.444,1.139425 0,0.834509 -0.66332,1.321305 -0.65798,0.486797 -1.81345,0.486797 -0.48145,0 -1.00569,-0.09629 -0.5189,-0.09094 -1.09663,-0.27817 v -1.016389 q 0.54564,0.283519 1.07523,0.427954 0.52959,0.139084 1.04848,0.139084 0.69543,0 1.06989,-0.235374 0.37446,-0.240724 0.37446,-0.674026 0,-0.401206 -0.27283,-0.615183 -0.26747,-0.213976 -1.18222,-0.411905 l -0.34236,-0.08024 q -0.91475,-0.192579 -1.3213,-0.588435 -0.40656,-0.401206 -0.40656,-1.0966302 0,-0.8452074 0.59914,-1.305257 0.59913,-0.4600496 1.70111,-0.4600496 0.54564,0 1.02709,0.080241 0.48144,0.080241 0.888,0.2407237 z"
       style="-inkscape-font-specification:'DejaVu Sans, Verdana, Geneva, sans-serif'"
       id="path1513" />
    <path
       d="m 123.96676,10.826795 h 2.88333 v 0.877304 h -2.88333 z"
       style="-inkscape-font-specification:'DejaVu Sans, Verdana, Geneva, sans-serif'"
       id="path1510" />
    <path
       d="m 131.14032,11.254748 q -1.19292,0 -1.65297,0.27282 -0.46005,0.27282 -0.46005,0.930798 0,0.524243 0.34236,0.834509 0.34772,0.304916 0.9415,0.304916 0.81846,0 1.31061,-0.577736 0.49749,-0.583087 0.49749,-1.545981 v -0.219326 z m 1.96324,-0.406555 v 3.418275 h -0.9843 v -0.9094 q -0.33701,0.54564 -0.83985,0.807761 -0.50285,0.256772 -1.23037,0.256772 -0.9201,0 -1.46574,-0.513544 -0.54029,-0.518893 -0.54029,-1.385498 0,-1.011039 0.67403,-1.524583 0.67937,-0.513544 2.02207,-0.513544 h 1.38015 v -0.09629 q 0,-0.6793756 -0.44935,-1.0484852 -0.444,-0.374459 -1.25176,-0.374459 -0.51354,0 -1.00034,0.1230365 -0.4868,0.1230366 -0.93615,0.3691096 V 8.5479445 q 0.54029,-0.2086271 1.04849,-0.310266 0.50819,-0.1069883 0.98964,-0.1069883 1.29991,0 1.94184,0.6740262 0.64193,0.6740262 0.64193,2.0434766 z"
       style="-inkscape-font-specification:'DejaVu Sans, Verdana, Geneva, sans-serif'"
       id="path1507" />
    <path
       d="m 140.11129,10.650264 v 3.616204 h -0.9843 v -3.584107 q 0,-0.8505571 -0.33166,-1.2731608 -0.33166,-0.4226037 -0.99499,-0.4226037 -0.79706,0 -1.25711,0.5081943 -0.46005,0.5081942 -0.46005,1.3854982 v 3.386179 h -0.98964 V 8.2751244 h 0.98964 v 0.930798 q 0.35306,-0.5402908 0.82916,-0.8077615 0.48144,-0.2674707 1.10733,-0.2674707 1.03243,0 1.56202,0.6419297 0.5296,0.6365803 0.5296,1.8776441 z"
       style="-inkscape-font-specification:'DejaVu Sans, Verdana, Geneva, sans-serif'"
       id="path1504" />
    <path
       d="m 145.89401,8.4516551 v 0.930798 Q 145.47675,9.1684765 145.0274,9.0614883 144.57805,8.9545 144.0966,8.9545 q -0.73287,0 -1.10198,0.2246754 -0.36376,0.2246754 -0.36376,0.6740261 0,0.3423625 0.26212,0.5402905 0.26213,0.192579 1.05384,0.36911 l 0.33701,0.07489 q 1.04849,0.224675 1.48714,0.63658 0.444,0.406555 0.444,1.139425 0,0.834509 -0.66333,1.321305 -0.65797,0.486797 -1.81345,0.486797 -0.48145,0 -1.00569,-0.09629 -0.51889,-0.09094 -1.09663,-0.27817 v -1.016389 q 0.54564,0.283519 1.07523,0.427954 0.5296,0.139084 1.04849,0.139084 0.69542,0 1.06988,-0.235374 0.37446,-0.240724 0.37446,-0.674026 0,-0.401206 -0.27282,-0.615183 -0.26747,-0.213976 -1.18222,-0.411905 l -0.34236,-0.08024 q -0.91475,-0.192579 -1.32131,-0.588435 -0.40655,-0.401206 -0.40655,-1.0966302 0,-0.8452074 0.59913,-1.305257 0.59914,-0.4600496 1.70112,-0.4600496 0.54564,0 1.02708,0.080241 0.48145,0.080241 0.88801,0.2407237 z"
       style="-inkscape-font-specification:'DejaVu Sans, Verdana, Geneva, sans-serif'"
       id="path1501" />
    <path
       d="m 147.78235,8.2751244 h 0.98429 v 5.9913436 h -0.98429 z m 0,-2.3323445 h 0.98429 v 1.2464135 h -0.98429 z"
       style="-inkscape-font-specification:'DejaVu Sans, Verdana, Geneva, sans-serif'"
       id="path1498" />
    <path
       d="m 155.12709,11.276146 q 0,-1.085931 -0.44935,-1.701114 -0.444,-0.620532 -1.22501,-0.620532 -0.78102,0 -1.23037,0.620532 -0.444,0.615183 -0.444,1.701114 0,1.085931 0.444,1.706463 0.44935,0.615182 1.23037,0.615182 0.78101,0 1.22501,-0.615182 0.44935,-0.620532 0.44935,-1.706463 z m -3.34873,-2.0916212 q 0.31027,-0.5349414 0.78101,-0.7917133 0.4761,-0.2621213 1.13408,-0.2621213 1.09128,0 1.77066,0.8666051 0.68472,0.8666051 0.68472,2.2788507 0,1.412245 -0.68472,2.27885 -0.67938,0.866605 -1.77066,0.866605 -0.65798,0 -1.13408,-0.256772 -0.47074,-0.262121 -0.78101,-0.797062 v 0.898701 h -0.98964 V 5.9427799 h 0.98964 z"
       style="-inkscape-font-specification:'DejaVu Sans, Verdana, Geneva, sans-serif'"
       id="path1495" />
    <path
       d="m 157.7804,5.9427799 h 0.9843 v 8.3236881 h -0.9843 z"
       style="-inkscape-font-specification:'DejaVu Sans, Verdana, Geneva, sans-serif'"
       id="path1492" />
    <path
       d="m 165.94896,11.024723 v 0.481447 h -4.52561 q 0.0642,1.016389 0.60984,1.55133 0.55099,0.529592 1.52993,0.529592 0.56704,0 1.09663,-0.139084 0.53494,-0.139085 1.05918,-0.417255 v 0.930798 q -0.52959,0.224676 -1.08593,0.342363 -0.55634,0.117687 -1.12872,0.117687 -1.43365,0 -2.27351,-0.834509 -0.8345,-0.834508 -0.8345,-2.257452 0,-1.4710891 0.79171,-2.3323447 0.79706,-0.8666051 2.14511,-0.8666051 1.20897,0 1.90974,0.7810145 0.70613,0.775665 0.70613,2.1130183 z m -0.98429,-0.288868 q -0.0107,-0.8077617 -0.4547,-1.2892089 -0.43866,-0.4814473 -1.16618,-0.4814473 -0.82381,0 -1.3213,0.465399 -0.49215,0.465399 -0.56704,1.3106062 z"
       style="-inkscape-font-specification:'DejaVu Sans, Verdana, Geneva, sans-serif'"
       id="path1489" />
    <path
       d="m 169.31373,6.279793 h 0.9094 l -2.78169,9.003064 h -0.9094 z"
       style="-inkscape-font-specification:'DejaVu Sans, Verdana, Geneva, sans-serif'"
       id="path1486" />
    <path
       d="m 175.5672,8.5051492 v 0.9200992 q -0.41725,-0.2300248 -0.83985,-0.3423625 -0.41726,-0.1176871 -0.84521,-0.1176871 -0.95755,0 -1.48714,0.6098332 -0.52959,0.604484 -0.52959,1.701114 0,1.09663 0.52959,1.706463 0.52959,0.604483 1.48714,0.604483 0.42795,0 0.84521,-0.112337 0.4226,-0.117687 0.83985,-0.347712 v 0.9094 q -0.4119,0.192579 -0.8559,0.288869 -0.43865,0.09629 -0.93615,0.09629 -1.3534,0 -2.15046,-0.850557 -0.79707,-0.850557 -0.79707,-2.294898 0,-1.4657398 0.80242,-2.3055978 0.80776,-0.839858 2.2093,-0.839858 0.4547,0 0.88801,0.096289 0.4333,0.09094 0.83985,0.2781695 z"
       style="-inkscape-font-specification:'DejaVu Sans, Verdana, Geneva, sans-serif'"
       id="path1483" />
    <path
       d="m 182.25932,10.650264 v 3.616204 h -0.98429 v -3.584107 q 0,-0.8505571 -0.33167,-1.2731608 -0.33166,-0.4226037 -0.99499,-0.4226037 -0.79706,0 -1.25711,0.5081943 -0.46005,0.5081942 -0.46005,1.3854982 v 3.386179 h -0.98964 V 5.9427799 h 0.98964 v 3.2631425 q 0.35306,-0.5402908 0.82916,-0.8077615 0.48145,-0.2674707 1.10733,-0.2674707 1.03244,0 1.56203,0.6419297 0.52959,0.6365803 0.52959,1.8776441 z"
       style="-inkscape-font-specification:'DejaVu Sans, Verdana, Geneva, sans-serif'"
       id="path1480" />
    <path
       d="m 189.3473,11.024723 v 0.481447 h -4.52561 q 0.0642,1.016389 0.60983,1.55133 0.55099,0.529592 1.52994,0.529592 0.56704,0 1.09663,-0.139084 0.53494,-0.139085 1.05918,-0.417255 v 0.930798 q -0.52959,0.224676 -1.08593,0.342363 -0.55634,0.117687 -1.12873,0.117687 -1.43364,0 -2.2735,-0.834509 -0.83451,-0.834508 -0.83451,-2.257452 0,-1.4710891 0.79172,-2.3323447 0.79706,-0.8666051 2.14511,-0.8666051 1.20897,0 1.90974,0.7810145 0.70613,0.775665 0.70613,2.1130183 z m -0.9843,-0.288868 q -0.0107,-0.8077617 -0.4547,-1.2892089 -0.43865,-0.4814473 -1.16617,-0.4814473 -0.82381,0 -1.3213,0.465399 -0.49215,0.465399 -0.56704,1.3106062 z"
       style="-inkscape-font-specification:'DejaVu Sans, Verdana, Geneva, sans-serif'"
       id="path1477" />
    <path
       d="m 195.27444,8.5051492 v 0.9200992 q -0.41725,-0.2300248 -0.83986,-0.3423625 -0.41725,-0.1176871 -0.8452,-0.1176871 -0.95755,0 -1.48714,0.6098332 -0.52959,0.604484 -0.52959,1.701114 0,1.09663 0.52959,1.706463 0.52959,0.604483 1.48714,0.604483 0.42795,0 0.8452,-0.112337 0.42261,-0.117687 0.83986,-0.347712 v 0.9094 q -0.4119,0.192579 -0.8559,0.288869 -0.43866,0.09629 -0.93615,0.09629 -1.3534,0 -2.15047,-0.850557 -0.79706,-0.850557 -0.79706,-2.294898 0,-1.4657398 0.80241,-2.3055978 0.80776,-0.839858 2.20931,-0.839858 0.4547,0 0.888,0.096289 0.43331,0.09094 0.83986,0.2781695 z"
       style="-inkscape-font-specification:'DejaVu Sans, Verdana, Geneva, sans-serif'"
       id="path1474" />
    <path
       d="m 196.94881,5.9427799 h 0.98964 v 4.9161111 l 2.93683,-2.5837666 h 1.25711 l -3.17755,2.8030926 3.31128,3.188251 h -1.28386 l -3.04381,-2.926129 v 2.926129 h -0.98964 z"
       style="-inkscape-font-specification:'DejaVu Sans, Verdana, Geneva, sans-serif'"
       id="path1471" />
    <path
       d="m 202.83316,10.826795 h 2.88334 v 0.877304 h -2.88334 z"
       style="-inkscape-font-specification:'DejaVu Sans, Verdana, Geneva, sans-serif'"
       id="path1468" />
    <path
       d="m 210.00673,11.254748 q -1.19292,0 -1.65297,0.27282 -0.46005,0.27282 -0.46005,0.930798 0,0.524243 0.34236,0.834509 0.34771,0.304916 0.9415,0.304916 0.81846,0 1.3106,-0.577736 0.4975,-0.583087 0.4975,-1.545981 v -0.219326 z m 1.96323,-0.406555 v 3.418275 h -0.98429 v -0.9094 q -0.33701,0.54564 -0.83986,0.807761 -0.50284,0.256772 -1.23036,0.256772 -0.9201,0 -1.46574,-0.513544 -0.54029,-0.518893 -0.54029,-1.385498 0,-1.011039 0.67402,-1.524583 0.67938,-0.513544 2.02208,-0.513544 h 1.38015 v -0.09629 q 0,-0.6793756 -0.44935,-1.0484852 -0.444,-0.374459 -1.25176,-0.374459 -0.51355,0 -1.00034,0.1230365 -0.4868,0.1230366 -0.93615,0.3691096 V 8.5479445 q 0.54029,-0.2086271 1.04848,-0.310266 0.5082,-0.1069883 0.98964,-0.1069883 1.29991,0 1.94184,0.6740262 0.64193,0.6740262 0.64193,2.0434766 z"
       style="-inkscape-font-specification:'DejaVu Sans, Verdana, Geneva, sans-serif'"
       id="path1465" />
    <path
       d="m 218.9777,10.650264 v 3.616204 h -0.9843 v -3.584107 q 0,-0.8505571 -0.33166,-1.2731608 -0.33166,-0.4226037 -0.99499,-0.4226037 -0.79706,0 -1.25711,0.5081943 -0.46005,0.5081942 -0.46005,1.3854982 v 3.386179 h -0.98964 V 8.2751244 h 0.98964 v 0.930798 q 0.35306,-0.5402908 0.82916,-0.8077615 0.48144,-0.2674707 1.10732,-0.2674707 1.03244,0 1.56203,0.6419297 0.5296,0.6365803 0.5296,1.8776441 z"
       style="-inkscape-font-specification:'DejaVu Sans, Verdana, Geneva, sans-serif'"
       id="path1462" />
    <path
       d="m 224.76041,8.4516551 v 0.930798 Q 224.34316,9.1684765 223.89381,9.0614883 223.44446,8.9545 222.96301,8.9545 q -0.73287,0 -1.10198,0.2246754 -0.36376,0.2246754 -0.36376,0.6740261 0,0.3423625 0.26212,0.5402905 0.26213,0.192579 1.05384,0.36911 l 0.33701,0.07489 q 1.04849,0.224675 1.48714,0.63658 0.444,0.406555 0.444,1.139425 0,0.834509 -0.66333,1.321305 -0.65798,0.486797 -1.81345,0.486797 -0.48145,0 -1.00569,-0.09629 -0.51889,-0.09094 -1.09663,-0.27817 v -1.016389 q 0.54564,0.283519 1.07523,0.427954 0.5296,0.139084 1.04849,0.139084 0.69542,0 1.06988,-0.235374 0.37446,-0.240724 0.37446,-0.674026 0,-0.401206 -0.27282,-0.615183 -0.26747,-0.213976 -1.18222,-0.411905 l -0.34236,-0.08024 q -0.91475,-0.192579 -1.32131,-0.588435 -0.40655,-0.401206 -0.40655,-1.0966302 0,-0.8452074 0.59913,-1.305257 0.59914,-0.4600496 1.70111,-0.4600496 0.54564,0 1.02709,0.080241 0.48145,0.080241 0.888,0.2407237 z"
       style="-inkscape-font-specification:'DejaVu Sans, Verdana, Geneva, sans-serif'"
       id="path1459" />
    <path
       d="m 226.64875,8.2751244 h 0.98429 v 5.9913436 h -0.98429 z m 0,-2.3323445 h 0.98429 v 1.2464135 h -0.98429 z"
       style="-inkscape-font-specification:'DejaVu Sans, Verdana, Geneva, sans-serif'"
       id="path1456" />
    <path
       d="m 233.9935,11.276146 q 0,-1.085931 -0.44935,-1.701114 -0.444,-0.620532 -1.22501,-0.620532 -0.78102,0 -1.23037,0.620532 -0.444,0.615183 -0.444,1.701114 0,1.085931 0.444,1.706463 0.44935,0.615182 1.23037,0.615182 0.78101,0 1.22501,-0.615182 0.44935,-0.620532 0.44935,-1.706463 z m -3.34873,-2.0916212 q 0.31027,-0.5349414 0.78101,-0.7917133 0.4761,-0.2621213 1.13408,-0.2621213 1.09128,0 1.77066,0.8666051 0.68472,0.8666051 0.68472,2.2788507 0,1.412245 -0.68472,2.27885 -0.67938,0.866605 -1.77066,0.866605 -0.65798,0 -1.13408,-0.256772 -0.47074,-0.262121 -0.78101,-0.797062 v 0.898701 h -0.98964 V 5.9427799 h 0.98964 z"
       style="-inkscape-font-specification:'DejaVu Sans, Verdana, Geneva, sans-serif'"
       id="path1453" />
    <path
       d="m 236.64681,5.9427799 h 0.98429 v 8.3236881 h -0.98429 z"
       style="-inkscape-font-specification:'DejaVu Sans, Verdana, Geneva, sans-serif'"
       id="path1450" />
    <path
       d="m 244.81536,11.024723 v 0.481447 h -4.52561 q 0.0642,1.016389 0.60984,1.55133 0.55099,0.529592 1.52993,0.529592 0.56704,0 1.09663,-0.139084 0.53494,-0.139085 1.05918,-0.417255 v 0.930798 q -0.52959,0.224676 -1.08593,0.342363 -0.55634,0.117687 -1.12872,0.117687 -1.43365,0 -2.2735,-0.834509 -0.83451,-0.834508 -0.83451,-2.257452 0,-1.4710891 0.79171,-2.3323447 0.79706,-0.8666051 2.14512,-0.8666051 1.20896,0 1.90974,0.7810145 0.70612,0.775665 0.70612,2.1130183 z m -0.98429,-0.288868 q -0.0107,-0.8077617 -0.4547,-1.2892089 -0.43866,-0.4814473 -1.16618,-0.4814473 -0.82381,0 -1.3213,0.465399 -0.49215,0.465399 -0.56704,1.3106062 z"
       style="-inkscape-font-specification:'DejaVu Sans, Verdana, Geneva, sans-serif'"
       id="path1447" />
    <path
       d="m 245.93339,10.826795 h 2.88333 v 0.877304 h -2.88333 z"
       style="-inkscape-font-specification:'DejaVu Sans, Verdana, Geneva, sans-serif'"
       id="path1444" />
    <path
       d="m 253.10695,11.254748 q -1.19292,0 -1.65297,0.27282 -0.46004,0.27282 -0.46004,0.930798 0,0.524243 0.34236,0.834509 0.34771,0.304916 0.94149,0.304916 0.81846,0 1.31061,-0.577736 0.4975,-0.583087 0.4975,-1.545981 v -0.219326 z m 1.96324,-0.406555 v 3.418275 h -0.98429 v -0.9094 q -0.33702,0.54564 -0.83986,0.807761 -0.50285,0.256772 -1.23037,0.256772 -0.9201,0 -1.46574,-0.513544 -0.54029,-0.518893 -0.54029,-1.385498 0,-1.011039 0.67403,-1.524583 0.67937,-0.513544 2.02208,-0.513544 h 1.38015 v -0.09629 q 0,-0.6793756 -0.44935,-1.0484852 -0.44401,-0.374459 -1.25177,-0.374459 -0.51354,0 -1.00034,0.1230365 -0.48679,0.1230366 -0.93615,0.3691096 V 8.5479445 q 0.5403,-0.2086271 1.04849,-0.310266 0.50819,-0.1069883 0.98964,-0.1069883 1.29991,0 1.94184,0.6740262 0.64193,0.6740262 0.64193,2.0434766 z"
       style="-inkscape-font-specification:'DejaVu Sans, Verdana, Geneva, sans-serif'"
       id="path1441" />
    <path
       d="m 257.09762,5.9427799 h 0.98429 v 8.3236881 h -0.98429 z"
       style="-inkscape-font-specification:'DejaVu Sans, Verdana, Geneva, sans-serif'"
       id="path1438" />
    <path
       d="m 261.09364,13.367767 v 3.177551 H 260.104 V 8.2751244 h 0.98964 v 0.9094004 q 0.31026,-0.5349414 0.78101,-0.7917133 0.4761,-0.2621213 1.13408,-0.2621213 1.09128,0 1.77065,0.8666051 0.68473,0.8666051 0.68473,2.2788507 0,1.412245 -0.68473,2.27885 -0.67937,0.866605 -1.77065,0.866605 -0.65798,0 -1.13408,-0.256772 -0.47075,-0.262121 -0.78101,-0.797062 z m 3.34873,-2.091621 q 0,-1.085931 -0.44935,-1.701114 -0.444,-0.620532 -1.22502,-0.620532 -0.78101,0 -1.23036,0.620532 -0.444,0.615183 -0.444,1.701114 0,1.085931 0.444,1.706463 0.44935,0.615182 1.23036,0.615182 0.78102,0 1.22502,-0.615182 0.44935,-0.620532 0.44935,-1.706463 z"
       style="-inkscape-font-specification:'DejaVu Sans, Verdana, Geneva, sans-serif'"
       id="path1435" />
    <path
       d="m 267.09568,8.2751244 h 0.98429 v 5.9913436 h -0.98429 z m 0,-2.3323445 h 0.98429 v 1.2464135 h -0.98429 z"
       style="-inkscape-font-specification:'DejaVu Sans, Verdana, Geneva, sans-serif'"
       id="path1432" />
    <path
       d="m 275.11979,10.650264 v 3.616204 h -0.98429 v -3.584107 q 0,-0.8505571 -0.33166,-1.2731608 -0.33167,-0.4226037 -0.99499,-0.4226037 -0.79707,0 -1.25712,0.5081943 -0.46005,0.5081942 -0.46005,1.3854982 v 3.386179 h -0.98964 V 8.2751244 h 0.98964 v 0.930798 q 0.35307,-0.5402908 0.82916,-0.8077615 0.48145,-0.2674707 1.10733,-0.2674707 1.03244,0 1.56203,0.6419297 0.52959,0.6365803 0.52959,1.8776441 z"
       style="-inkscape-font-specification:'DejaVu Sans, Verdana, Geneva, sans-serif'"
       id="path1429" />
    <path
       d="m 282.20777,11.024723 v 0.481447 h -4.5256 q 0.0642,1.016389 0.60983,1.55133 0.55099,0.529592 1.52993,0.529592 0.56704,0 1.09663,-0.139084 0.53494,-0.139085 1.05918,-0.417255 v 0.930798 q -0.52959,0.224676 -1.08593,0.342363 -0.55634,0.117687 -1.12872,0.117687 -1.43365,0 -2.2735,-0.834509 -0.83451,-0.834508 -0.83451,-2.257452 0,-1.4710891 0.79171,-2.3323447 0.79706,-0.8666051 2.14512,-0.8666051 1.20896,0 1.90974,0.7810145 0.70612,0.775665 0.70612,2.1130183 z m -0.98429,-0.288868 q -0.0107,-0.8077617 -0.4547,-1.2892089 -0.43865,-0.4814473 -1.16618,-0.4814473 -0.8238,0 -1.3213,0.465399 -0.49215,0.465399 -0.56704,1.3106062 z"
       style="-inkscape-font-specification:'DejaVu Sans, Verdana, Geneva, sans-serif'"
       id="path1426" />
    <path
       d="m 283.3258,10.826795 h 2.88333 v 0.877304 h -2.88333 z"
       style="-inkscape-font-specification:'DejaVu Sans, Verdana, Geneva, sans-serif'"
       id="path1423" />
    <path
       d="m 287.77651,5.9427799 h 0.98429 v 8.3236881 h -0.98429 z"
       style="-inkscape-font-specification:'DejaVu Sans, Verdana, Geneva, sans-serif'"
       id="path1420" />
    <path
       d="m 293.54317,11.254748 q -1.19292,0 -1.65297,0.27282 -0.46005,0.27282 -0.46005,0.930798 0,0.524243 0.34237,0.834509 0.34771,0.304916 0.94149,0.304916 0.81846,0 1.31061,-0.577736 0.49749,-0.583087 0.49749,-1.545981 v -0.219326 z m 1.96324,-0.406555 v 3.418275 h -0.9843 v -0.9094 q -0.33701,0.54564 -0.83985,0.807761 -0.50285,0.256772 -1.23037,0.256772 -0.9201,0 -1.46574,-0.513544 -0.54029,-0.518893 -0.54029,-1.385498 0,-1.011039 0.67403,-1.524583 0.67937,-0.513544 2.02208,-0.513544 h 1.38014 v -0.09629 q 0,-0.6793756 -0.44935,-1.0484852 -0.444,-0.374459 -1.25176,-0.374459 -0.51354,0 -1.00034,0.1230365 -0.4868,0.1230366 -0.93615,0.3691096 V 8.5479445 q 0.54029,-0.2086271 1.04849,-0.310266 0.50819,-0.1069883 0.98964,-0.1069883 1.29991,0 1.94184,0.6740262 0.64193,0.6740262 0.64193,2.0434766 z"
       style="-inkscape-font-specification:'DejaVu Sans, Verdana, Geneva, sans-serif'"
       id="path1417" />
    <path
       d="m 298.50743,6.5740108 v 1.7011136 h 2.02743 v 0.7649662 h -2.02743 v 3.2524434 q 0,0.73287 0.19793,0.941497 0.20328,0.208627 0.81846,0.208627 h 1.01104 v 0.82381 h -1.01104 q -1.13943,0 -1.57273,-0.422604 -0.4333,-0.427953 -0.4333,-1.55133 V 9.0400906 h -0.72217 V 8.2751244 h 0.72217 V 6.5740108 Z"
       style="-inkscape-font-specification:'DejaVu Sans, Verdana, Geneva, sans-serif'"
       id="path1414" />
    <path
       d="m 306.95415,11.024723 v 0.481447 h -4.5256 q 0.0642,1.016389 0.60983,1.55133 0.55099,0.529592 1.52993,0.529592 0.56704,0 1.09663,-0.139084 0.53495,-0.139085 1.05919,-0.417255 v 0.930798 q -0.52959,0.224676 -1.08593,0.342363 -0.55634,0.117687 -1.12873,0.117687 -1.43364,0 -2.2735,-0.834509 -0.83451,-0.834508 -0.83451,-2.257452 0,-1.4710891 0.79171,-2.3323447 0.79707,-0.8666051 2.14512,-0.8666051 1.20897,0 1.90974,0.7810145 0.70612,0.775665 0.70612,2.1130183 z m -0.98429,-0.288868 q -0.0107,-0.8077617 -0.4547,-1.2892089 -0.43865,-0.4814473 -1.16617,-0.4814473 -0.82381,0 -1.32131,0.465399 -0.49214,0.465399 -0.56703,1.3106062 z"
       style="-inkscape-font-specification:'DejaVu Sans, Verdana, Geneva, sans-serif'"
       id="path1411" />
    <path
       d="m 312.38916,8.4516551 v 0.930798 Q 311.97191,9.1684765 311.52256,9.0614883 311.07321,8.9545 310.59176,8.9545 q -0.73287,0 -1.10198,0.2246754 -0.36376,0.2246754 -0.36376,0.6740261 0,0.3423625 0.26212,0.5402905 0.26212,0.192579 1.05383,0.36911 l 0.33702,0.07489 q 1.04848,0.224675 1.48713,0.63658 0.44401,0.406555 0.44401,1.139425 0,0.834509 -0.66333,1.321305 -0.65798,0.486797 -1.81345,0.486797 -0.48145,0 -1.00569,-0.09629 -0.5189,-0.09094 -1.09663,-0.27817 v -1.016389 q 0.54564,0.283519 1.07523,0.427954 0.52959,0.139084 1.04848,0.139084 0.69543,0 1.06989,-0.235374 0.37446,-0.240724 0.37446,-0.674026 0,-0.401206 -0.27282,-0.615183 -0.26747,-0.213976 -1.18222,-0.411905 l -0.34237,-0.08024 q -0.91475,-0.192579 -1.3213,-0.588435 -0.40656,-0.401206 -0.40656,-1.0966302 0,-0.8452074 0.59914,-1.305257 0.59913,-0.4600496 1.70111,-0.4600496 0.54564,0 1.02709,0.080241 0.48145,0.080241 0.888,0.2407237 z"
       style="-inkscape-font-specification:'DejaVu Sans, Verdana, Geneva, sans-serif'"
       id="path1408" />
    <path
       d="m 315.2511,6.5740108 v 1.7011136 h 2.02743 v 0.7649662 h -2.02743 v 3.2524434 q 0,0.73287 0.19793,0.941497 0.20327,0.208627 0.81846,0.208627 h 1.01104 v 0.82381 h -1.01104 q -1.13943,0 -1.57273,-0.422604 -0.4333,-0.427953 -0.4333,-1.55133 V 9.0400906 h -0.72217 V 8.2751244 h 0.72217 V 6.5740108 Z"
       style="-inkscape-font-specification:'DejaVu Sans, Verdana, Geneva, sans-serif'"
       id="path1405" />
    <path
       d="m 318.07559,10.826795 h 2.88333 v 0.877304 h -2.88333 z"
       style="-inkscape-font-specification:'DejaVu Sans, Verdana, Geneva, sans-serif'"
       id="path1402" />
    <path
       d="m 325.24915,11.254748 q -1.19292,0 -1.65297,0.27282 -0.46005,0.27282 -0.46005,0.930798 0,0.524243 0.34236,0.834509 0.34772,0.304916 0.9415,0.304916 0.81846,0 1.31061,-0.577736 0.49749,-0.583087 0.49749,-1.545981 v -0.219326 z m 1.96324,-0.406555 v 3.418275 h -0.9843 v -0.9094 q -0.33701,0.54564 -0.83985,0.807761 -0.50285,0.256772 -1.23037,0.256772 -0.9201,0 -1.46574,-0.513544 -0.54029,-0.518893 -0.54029,-1.385498 0,-1.011039 0.67403,-1.524583 0.67937,-0.513544 2.02207,-0.513544 h 1.38015 v -0.09629 q 0,-0.6793756 -0.44935,-1.0484852 -0.444,-0.374459 -1.25176,-0.374459 -0.51354,0 -1.00034,0.1230365 -0.4868,0.1230366 -0.93615,0.3691096 V 8.5479445 q 0.54029,-0.2086271 1.04849,-0.310266 0.50819,-0.1069883 0.98964,-0.1069883 1.29991,0 1.94184,0.6740262 0.64193,0.6740262 0.64193,2.0434766 z"
       style="-inkscape-font-specification:'DejaVu Sans, Verdana, Geneva, sans-serif'"
       id="path1399" />
    <path
       d="m 333.55144,8.5051492 v 0.9200992 q -0.41725,-0.2300248 -0.83986,-0.3423625 -0.41725,-0.1176871 -0.8452,-0.1176871 -0.95755,0 -1.48714,0.6098332 -0.52959,0.604484 -0.52959,1.701114 0,1.09663 0.52959,1.706463 0.52959,0.604483 1.48714,0.604483 0.42795,0 0.8452,-0.112337 0.42261,-0.117687 0.83986,-0.347712 v 0.9094 q -0.4119,0.192579 -0.8559,0.288869 -0.43866,0.09629 -0.93615,0.09629 -1.3534,0 -2.15047,-0.850557 -0.79706,-0.850557 -0.79706,-2.294898 0,-1.4657398 0.80241,-2.3055978 0.80777,-0.839858 2.20931,-0.839858 0.4547,0 0.888,0.096289 0.43331,0.09094 0.83986,0.2781695 z"
       style="-inkscape-font-specification:'DejaVu Sans, Verdana, Geneva, sans-serif'"
       id="path1396" />
    <path
       d="m 336.23685,6.5740108 v 1.7011136 h 2.02742 v 0.7649662 h -2.02742 v 3.2524434 q 0,0.73287 0.19792,0.941497 0.20328,0.208627 0.81846,0.208627 h 1.01104 v 0.82381 h -1.01104 q -1.13942,0 -1.57272,-0.422604 -0.43331,-0.427953 -0.43331,-1.55133 V 9.0400906 h -0.72217 V 8.2751244 h 0.72217 V 6.5740108 Z"
       style="-inkscape-font-specification:'DejaVu Sans, Verdana, Geneva, sans-serif'"
       id="path1393" />
    <path
       d="m 339.55883,8.2751244 h 0.98429 v 5.9913436 h -0.98429 z m 0,-2.3323445 h 0.98429 v 1.2464135 h -0.98429 z"
       style="-inkscape-font-specification:'DejaVu Sans, Verdana, Geneva, sans-serif'"
       id="path1390" />
    <path
       d="m 344.9243,8.9651988 q -0.79171,0 -1.25176,0.620532 -0.46005,0.6151822 -0.46005,1.6904152 0,1.075232 0.4547,1.695764 0.46005,0.615182 1.25711,0.615182 0.78636,0 1.24641,-0.620532 0.46005,-0.620532 0.46005,-1.690414 0,-1.064534 -0.46005,-1.6850658 -0.46005,-0.6258814 -1.24641,-0.6258814 z m 0,-0.8345086 q 1.28386,0 2.01673,0.8345086 0.73287,0.8345086 0.73287,2.3109472 0,1.471088 -0.73287,2.310946 -0.73287,0.834509 -2.01673,0.834509 -1.28921,0 -2.02208,-0.834509 -0.72752,-0.839858 -0.72752,-2.310946 0,-1.4764386 0.72752,-2.3109472 0.73287,-0.8345086 2.02208,-0.8345086 z"
       style="-inkscape-font-specification:'DejaVu Sans, Verdana, Geneva, sans-serif'"
       id="path1387" />
    <path
       d="m 354.28578,10.650264 v 3.616204 h -0.98429 v -3.584107 q 0,-0.8505571 -0.33167,-1.2731608 -0.33166,-0.4226037 -0.99499,-0.4226037 -0.79706,0 -1.25711,0.5081943 -0.46005,0.5081942 -0.46005,1.3854982 v 3.386179 h -0.98964 V 8.2751244 h 0.98964 v 0.930798 q 0.35306,-0.5402908 0.82916,-0.8077615 0.48145,-0.2674707 1.10733,-0.2674707 1.03243,0 1.56203,0.6419297 0.52959,0.6365803 0.52959,1.8776441 z"
       style="-inkscape-font-specification:'DejaVu Sans, Verdana, Geneva, sans-serif'"
       id="path1384" />
  </g>
</svg>
